<svg version="1.1" viewBox="0.0 0.0 538.3517060367454 226.997375328084" fill="none" stroke="none" stroke-linecap="square" stroke-miterlimit="10" xmlns:xlink="http://www.w3.org/1999/xlink" xmlns="http://www.w3.org/2000/svg"><clipPath id="p.0"><path d="m0 0l538.3517 0l0 226.99738l-538.3517 0l0 -226.99738z" clip-rule="nonzero"/></clipPath><g clip-path="url(#p.0)"><path fill="#000000" fill-opacity="0.0" d="m0 0l538.3517 0l0 226.99738l-538.3517 0z" fill-rule="evenodd"/><path fill="#ffffff" fill-opacity="0.2941" d="m4.454068 23.117037l0 0c0 -11.159618 9.046658 -20.206276 20.206276 -20.206276l489.98114 0c5.35907 0 10.498596 2.1288693 14.288025 5.9182816c3.7893677 3.7894115 5.918274 8.928957 5.918274 14.287994l0 180.46935c0 11.159607 -9.046692 20.206268 -20.206299 20.206268l-489.98114 0c-11.159617 0 -20.206276 -9.046661 -20.206276 -20.206268z" fill-rule="evenodd"/><path stroke="#d9d9d9" stroke-width="4.0" stroke-linejoin="round" stroke-linecap="butt" d="m4.454068 23.117037l0 0c0 -11.159618 9.046658 -20.206276 20.206276 -20.206276l489.98114 0c5.35907 0 10.498596 2.1288693 14.288025 5.9182816c3.7893677 3.7894115 5.918274 8.928957 5.918274 14.287994l0 180.46935c0 11.159607 -9.046692 20.206268 -20.206299 20.206268l-489.98114 0c-11.159617 0 -20.206276 -9.046661 -20.206276 -20.206268z" fill-rule="evenodd"/><path fill="#000000" fill-opacity="0.0" d="m261.12634 52.624672l67.08661 0" fill-rule="evenodd"/><path stroke="#000000" stroke-width="3.0" stroke-linejoin="round" stroke-linecap="butt" d="m261.12634 52.624672l49.08661 0" fill-rule="evenodd"/><path fill="#000000" stroke="#000000" stroke-width="3.0" stroke-linecap="butt" d="m310.21295 57.57987l13.614288 -4.9551964l-13.614288 -4.9551964z" fill-rule="evenodd"/><path fill="#000000" fill-opacity="0.0" d="m248.85861 64.89239l0 39.2126" fill-rule="evenodd"/><path stroke="#ff00ff" stroke-width="3.0" stroke-linejoin="round" stroke-linecap="butt" d="m248.85861 64.89239l0 21.2126" fill-rule="evenodd"/><path fill="#ff00ff" stroke="#ff00ff" stroke-width="3.0" stroke-linecap="butt" d="m243.90341 86.10499l4.9552 13.614288l4.9552 -13.614288z" fill-rule="evenodd"/><path fill="#cfe2f3" d="m236.5909 52.624672l0 0c0 -6.7752724 5.492447 -12.267715 12.267715 -12.267715l0 0c3.253601 0 6.373947 1.2924881 8.674591 3.5931282c2.3006287 2.300644 3.5931396 5.420986 3.5931396 8.674587l0 0c0 6.7752724 -5.492462 12.267715 -12.267731 12.267715l0 0c-6.7752686 0 -12.267715 -5.492443 -12.267715 -12.267715z" fill-rule="evenodd"/><path stroke="#000000" stroke-width="1.0" stroke-linejoin="round" stroke-linecap="butt" d="m236.5909 52.624672l0 0c0 -6.7752724 5.492447 -12.267715 12.267715 -12.267715l0 0c3.253601 0 6.373947 1.2924881 8.674591 3.5931282c2.3006287 2.300644 3.5931396 5.420986 3.5931396 8.674587l0 0c0 6.7752724 -5.492462 12.267715 -12.267731 12.267715l0 0c-6.7752686 0 -12.267715 -5.492443 -12.267715 -12.267715z" fill-rule="evenodd"/><path fill="#ffd966" d="m228.43677 52.62209l0 0c0 -11.278114 9.142715 -20.420834 20.420837 -20.420834l0 0c5.4159393 0 10.610046 2.151474 14.439697 5.981125c3.8296509 3.829647 5.98114 9.023766 5.98114 14.439709l0 0c0 11.278114 -9.142731 20.420834 -20.420837 20.420834l0 0c-11.278122 0 -20.420837 -9.142719 -20.420837 -20.420834z" fill-rule="evenodd"/><path stroke="#ff00ff" stroke-width="2.3963254593175853" stroke-linejoin="round" stroke-linecap="butt" d="m228.43677 52.62209l0 0c0 -11.278114 9.142715 -20.420834 20.420837 -20.420834l0 0c5.4159393 0 10.610046 2.151474 14.439697 5.981125c3.8296509 3.829647 5.98114 9.023766 5.98114 14.439709l0 0c0 11.278114 -9.142731 20.420834 -20.420837 20.420834l0 0c-11.278122 0 -20.420837 -9.142719 -20.420837 -20.420834z" fill-rule="evenodd"/><path fill="#000000" fill-opacity="0.0" d="m203.52411 7.0613184l90.66699 0l0 91.11995l-90.66699 0z" fill-rule="evenodd"/><path fill="#000000" d="m247.48792 57.913303q-0.015625 -0.515625 -0.015625 -0.765625q0 -1.484375 0.421875 -2.5625q0.3125 -0.8125 1.0 -1.640625q0.5 -0.609375 1.8125 -1.765625q1.3125 -1.15625 1.703125 -1.84375q0.40625 -0.6875 0.40625 -1.5q0 -1.484375 -1.15625 -2.59375q-1.15625 -1.125 -2.828125 -1.125q-1.609375 0 -2.6875 1.015625q-1.078125 1.015625 -1.421875 3.15625l-2.59375 -0.3125q0.34375 -2.875 2.078125 -4.40625q1.734375 -1.53125 4.59375 -1.53125q3.015625 0 4.8125 1.65625q1.796875 1.640625 1.796875 3.96875q0 1.34375 -0.640625 2.484375q-0.625 1.140625 -2.46875 2.765625q-1.234375 1.09375 -1.609375 1.609375q-0.375 0.515625 -0.5625 1.203125q-0.1875 0.671875 -0.21875 2.1875l-2.421875 0zm-0.15625 5.0625l0 -2.875l2.875 0l0 2.875l-2.875 0z" fill-rule="nonzero"/><path fill="#000000" fill-opacity="0.0" d="m68.967606 52.87648l49.228348 -0.25196838" fill-rule="evenodd"/><path stroke="#ff00ff" stroke-width="3.0" stroke-linejoin="round" stroke-linecap="butt" d="m68.9676 52.87648l31.228584 -0.15983582" fill-rule="evenodd"/><path fill="#ff00ff" stroke="#ff00ff" stroke-width="3.0" stroke-linecap="butt" d="m100.22155 57.671776l13.588745 -5.0248146l-13.639473 -4.8854523z" fill-rule="evenodd"/><path fill="#000000" fill-opacity="0.0" d="m384.62115 52.624672l51.685028 0.25196838" fill-rule="evenodd"/><path stroke="#000000" stroke-width="3.0" stroke-linejoin="round" stroke-linecap="butt" d="m384.62115 52.624672l33.68524 0.16421509" fill-rule="evenodd"/><path fill="#000000" stroke="#000000" stroke-width="3.0" stroke-linecap="butt" d="m418.28226 57.74403l13.638275 -4.888771l-13.589966 -5.0215073z" fill-rule="evenodd"/><g filter="url(#shadowFilter-p.1)"><use xlink:href="#p.1" transform="matrix(1.0 0.0 0.0 1.0 0.0 1.5366118110236264)"/></g><defs><filter id="shadowFilter-p.1" filterUnits="userSpaceOnUse"><feGaussianBlur in="SourceAlpha" stdDeviation="1.5366118" result="blur"/><feComponentTransfer in="blur" color-interpolation-filters="sRGB"><feFuncR type="linear" slope="0" intercept="0.0"/><feFuncG type="linear" slope="0" intercept="0.0"/><feFuncB type="linear" slope="0" intercept="0.0"/><feFuncA type="linear" slope="0.5" intercept="0"/></feComponentTransfer></filter></defs><g id="p.1"><path fill="#ff00ff" d="m118.201195 37.265247l0 0c0 -4.241516 3.4384308 -7.679945 7.679947 -7.679945l41.049553 0c2.03685 0 3.9902802 0.8091335 5.430542 2.249403c1.4402771 1.4402695 2.249405 3.393692 2.249405 5.430542l0 30.718853c0 4.241516 -3.4384308 7.6799393 -7.679947 7.6799393l-41.049553 0l0 0c-4.241516 0 -7.679947 -3.4384232 -7.679947 -7.6799393z" fill-rule="evenodd"/><path stroke="#595959" stroke-width="0.7664041994750657" stroke-linejoin="round" stroke-linecap="butt" d="m118.201195 37.265247l0 0c0 -4.241516 3.4384308 -7.679945 7.679947 -7.679945l41.049553 0c2.03685 0 3.9902802 0.8091335 5.430542 2.249403c1.4402771 1.4402695 2.249405 3.393692 2.249405 5.430542l0 30.718853c0 4.241516 -3.4384308 7.6799393 -7.679947 7.6799393l-41.049553 0l0 0c-4.241516 0 -7.679947 -3.4384232 -7.679947 -7.6799393z" fill-rule="evenodd"/><path fill="#000000" d="m141.17027 58.35958l4.453125 -11.71875l1.5625 0l4.453125 11.71875l-1.515625 0l-3.21875 -8.765625l-0.46875 -1.25l-0.0625 0l-0.453125 1.25l-3.234375 8.765625l-1.515625 0zm5.078125 -3.21875l0 -1.3125l2.703125 0l0.46875 1.3125l-3.171875 0zm-3.1875 0l0.484375 -1.3125l2.703125 0l0 1.3125l-3.1875 0z" fill-rule="nonzero"/></g><g filter="url(#shadowFilter-p.2)"><use xlink:href="#p.2" transform="matrix(1.0 0.0 0.0 1.0 0.0 1.5366118110236264)"/></g><defs><filter id="shadowFilter-p.2" filterUnits="userSpaceOnUse"><feGaussianBlur in="SourceAlpha" stdDeviation="1.5366118" result="blur"/><feComponentTransfer in="blur" color-interpolation-filters="sRGB"><feFuncR type="linear" slope="0" intercept="0.0"/><feFuncG type="linear" slope="0" intercept="0.0"/><feFuncB type="linear" slope="0" intercept="0.0"/><feFuncA type="linear" slope="0.5" intercept="0"/></feComponentTransfer></filter></defs><g id="p.2"><path fill="#f3f3f3" d="m328.2117 37.265247l0 0c0 -4.241516 3.4384155 -7.679945 7.6799316 -7.679945l41.04956 0c2.0368652 0 3.990265 0.8091335 5.430542 2.249403c1.4402771 1.4402695 2.2494202 3.393692 2.2494202 5.430542l0 30.718853c0 4.241516 -3.438446 7.6799393 -7.679962 7.6799393l-41.04956 0l0 0c-4.241516 0 -7.6799316 -3.4384232 -7.6799316 -7.6799393z" fill-rule="evenodd"/><path stroke="#595959" stroke-width="0.7664041994750657" stroke-linejoin="round" stroke-linecap="butt" d="m328.2117 37.265247l0 0c0 -4.241516 3.4384155 -7.679945 7.6799316 -7.679945l41.04956 0c2.0368652 0 3.990265 0.8091335 5.430542 2.249403c1.4402771 1.4402695 2.2494202 3.393692 2.2494202 5.430542l0 30.718853c0 4.241516 -3.438446 7.6799393 -7.679962 7.6799393l-41.04956 0l0 0c-4.241516 0 -7.6799316 -3.4384232 -7.6799316 -7.6799393z" fill-rule="evenodd"/><path fill="#000000" d="m352.80078 58.35958l0 -11.71875l4.203125 0q0.90625 0 1.65625 0.40625q0.765625 0.390625 1.234375 1.109375q0.46875 0.703125 0.46875 1.640625q0 0.859375 -0.453125 1.5q-0.4375 0.640625 -1.15625 0.96875l0 0.0625q0.875 0.28125 1.4375 1.0q0.5625 0.71875 0.5625 1.703125q0 0.984375 -0.5 1.734375q-0.484375 0.75 -1.28125 1.171875q-0.796875 0.421875 -1.734375 0.421875l-4.4375 0zm0.734375 -5.34375l0 -1.328125l3.46875 0q0.625 0 1.0625 -0.28125q0.453125 -0.28125 0.6875 -0.703125q0.234375 -0.4375 0.234375 -0.875q0 -0.4375 -0.234375 -0.859375q-0.21875 -0.4375 -0.65625 -0.71875q-0.421875 -0.28125 -1.03125 -0.28125l-2.875 0l0 9.0625l3.125 0q0.625 0 1.078125 -0.296875q0.46875 -0.3125 0.703125 -0.765625q0.25 -0.46875 0.25 -0.953125q0 -0.484375 -0.25 -0.9375q-0.25 -0.46875 -0.71875 -0.765625q-0.46875 -0.296875 -1.125 -0.296875l-3.71875 0z" fill-rule="nonzero"/></g><g filter="url(#shadowFilter-p.3)"><use xlink:href="#p.3" transform="matrix(1.0 0.0 0.0 1.0 0.0 2.0)"/></g><defs><filter id="shadowFilter-p.3" filterUnits="userSpaceOnUse"><feGaussianBlur in="SourceAlpha" stdDeviation="2.0" result="blur"/><feComponentTransfer in="blur" color-interpolation-filters="sRGB"><feFuncR type="linear" slope="0" intercept="0.0"/><feFuncG type="linear" slope="0" intercept="0.0"/><feFuncB type="linear" slope="0" intercept="0.0"/><feFuncA type="linear" slope="0.5" intercept="0"/></feComponentTransfer></filter></defs><g id="p.3"><path fill="#43e543" d="m21.033915 52.87648l0 0c0 -13.236523 10.730322 -23.966843 23.966845 -23.966843l0 0c6.3564034 0 12.452465 2.5250702 16.947117 7.019726c4.4946594 4.4946556 7.0197296 10.5907135 7.0197296 16.947117l0 0c0 13.2365265 -10.730324 23.966843 -23.966846 23.966843l0 0c-13.236523 0 -23.966845 -10.730316 -23.966845 -23.966843z" fill-rule="evenodd"/></g><g filter="url(#shadowFilter-p.4)"><use xlink:href="#p.4" transform="matrix(1.0 0.0 0.0 1.0 0.0 2.0)"/></g><defs><filter id="shadowFilter-p.4" filterUnits="userSpaceOnUse"><feGaussianBlur in="SourceAlpha" stdDeviation="2.0" result="blur"/><feComponentTransfer in="blur" color-interpolation-filters="sRGB"><feFuncR type="linear" slope="0" intercept="0.0"/><feFuncG type="linear" slope="0" intercept="0.0"/><feFuncB type="linear" slope="0" intercept="0.0"/><feFuncA type="linear" slope="0.5" intercept="0"/></feComponentTransfer></filter></defs><g id="p.4"><path fill="#ffffff" d="m36.465412 38.94875l23.929485 13.926174l-23.929485 13.926178z" fill-rule="evenodd"/><path stroke="#ffffff" stroke-width="8.0" stroke-linejoin="round" stroke-linecap="butt" d="m36.465412 38.94875l23.929485 13.926174l-23.929485 13.926178z" fill-rule="evenodd"/></g><g filter="url(#shadowFilter-p.5)"><use xlink:href="#p.5" transform="matrix(1.0 0.0 0.0 1.0 0.0 2.0)"/></g><defs><filter id="shadowFilter-p.5" filterUnits="userSpaceOnUse"><feGaussianBlur in="SourceAlpha" stdDeviation="2.0" result="blur"/><feComponentTransfer in="blur" color-interpolation-filters="sRGB"><feFuncR type="linear" slope="0" intercept="0.0"/><feFuncG type="linear" slope="0" intercept="0.0"/><feFuncB type="linear" slope="0" intercept="0.0"/><feFuncA type="linear" slope="0.5" intercept="0"/></feComponentTransfer></filter></defs><g id="p.5"><path fill="#212121" d="m436.31778 52.876118l0 0c0 -13.236523 10.730347 -23.966843 23.966858 -23.966843l0 0c6.356415 0 12.452454 2.5250702 16.947113 7.019726c4.4946594 4.4946556 7.019745 10.590717 7.019745 16.947117l0 0c0 13.236523 -10.730347 23.966846 -23.966858 23.966846l0 0c-13.236511 0 -23.966858 -10.730324 -23.966858 -23.966846z" fill-rule="evenodd"/><path stroke="#ffffff" stroke-width="2.0" stroke-linejoin="round" stroke-linecap="butt" d="m436.31778 52.876118l0 0c0 -13.236523 10.730347 -23.966843 23.966858 -23.966843l0 0c6.356415 0 12.452454 2.5250702 16.947113 7.019726c4.4946594 4.4946556 7.019745 10.590717 7.019745 16.947117l0 0c0 13.236523 -10.730347 23.966846 -23.966858 23.966846l0 0c-13.236511 0 -23.966858 -10.730324 -23.966858 -23.966846z" fill-rule="evenodd"/></g><g filter="url(#shadowFilter-p.6)"><use xlink:href="#p.6" transform="matrix(1.0 0.0 0.0 1.0 0.0 2.0)"/></g><defs><filter id="shadowFilter-p.6" filterUnits="userSpaceOnUse"><feGaussianBlur in="SourceAlpha" stdDeviation="2.0" result="blur"/><feComponentTransfer in="blur" color-interpolation-filters="sRGB"><feFuncR type="linear" slope="0" intercept="0.0"/><feFuncG type="linear" slope="0" intercept="0.0"/><feFuncB type="linear" slope="0" intercept="0.0"/><feFuncA type="linear" slope="0.5" intercept="0"/></feComponentTransfer></filter></defs><g id="p.6"><path fill="#ffff00" d="m442.45898 47.359257l13.614075 9.1552734E-5l4.206909 -12.93626l4.206909 12.93626l13.614075 -9.1552734E-5l-11.014069 7.994957l4.207062 12.936199l-11.013977 -7.995102l-11.013977 7.995102l4.207062 -12.936199z" fill-rule="evenodd"/><path stroke="#ffff00" stroke-width="3.0" stroke-linejoin="round" stroke-linecap="butt" d="m442.45898 47.359257l13.614075 9.1552734E-5l4.206909 -12.93626l4.206909 12.93626l13.614075 -9.1552734E-5l-11.014069 7.994957l4.207062 12.936199l-11.013977 -7.995102l-11.013977 7.995102l4.207062 -12.936199z" fill-rule="evenodd"/></g><g filter="url(#shadowFilter-p.7)"><use xlink:href="#p.7" transform="matrix(1.0 0.0 0.0 1.0 0.0 1.5366118110236169)"/></g><defs><filter id="shadowFilter-p.7" filterUnits="userSpaceOnUse"><feGaussianBlur in="SourceAlpha" stdDeviation="1.5366118" result="blur"/><feComponentTransfer in="blur" color-interpolation-filters="sRGB"><feFuncR type="linear" slope="0" intercept="0.0"/><feFuncG type="linear" slope="0" intercept="0.0"/><feFuncB type="linear" slope="0" intercept="0.0"/><feFuncA type="linear" slope="0.5" intercept="0"/></feComponentTransfer></filter></defs><g id="p.7"><path fill="#ff00ff" d="m303.839 173.25737l0 0c0 -4.241516 3.4384155 -7.679947 7.6799316 -7.679947l41.04956 0c2.0368652 0 3.9902954 0.80914307 5.430542 2.249405c1.4402771 1.4402771 2.2494202 3.393692 2.2494202 5.430542l0 30.718857c0 4.241516 -3.438446 7.679947 -7.679962 7.679947l-41.04956 0l0 0c-4.241516 0 -7.6799316 -3.4384308 -7.6799316 -7.679947z" fill-rule="evenodd"/><path stroke="#595959" stroke-width="0.7664041994750657" stroke-linejoin="round" stroke-linecap="butt" d="m303.839 173.25737l0 0c0 -4.241516 3.4384155 -7.679947 7.6799316 -7.679947l41.04956 0c2.0368652 0 3.9902954 0.80914307 5.430542 2.249405c1.4402771 1.4402771 2.2494202 3.393692 2.2494202 5.430542l0 30.718857c0 4.241516 -3.438446 7.679947 -7.679962 7.679947l-41.04956 0l0 0c-4.241516 0 -7.6799316 -3.4384308 -7.6799316 -7.679947z" fill-rule="evenodd"/><path fill="#000000" d="m332.81458 194.61734q-1.296875 0 -2.40625 -0.46875q-1.09375 -0.46875 -1.921875 -1.296875q-0.828125 -0.828125 -1.296875 -1.9375q-0.453125 -1.125 -0.453125 -2.421875q0 -1.3125 0.453125 -2.421875q0.46875 -1.125 1.296875 -1.9375q0.828125 -0.828125 1.921875 -1.296875q1.109375 -0.46875 2.40625 -0.46875q0.90625 0 1.671875 0.234375q0.78125 0.21875 1.4375 0.65625q0.65625 0.421875 1.171875 1.015625l-0.984375 0.96875q-0.453125 -0.53125 -0.953125 -0.875q-0.5 -0.34375 -1.078125 -0.5q-0.578125 -0.171875 -1.265625 -0.171875q-1.265625 0 -2.328125 0.59375q-1.0625 0.578125 -1.703125 1.65625q-0.640625 1.0625 -0.640625 2.546875q0 1.453125 0.640625 2.53125q0.640625 1.078125 1.703125 1.671875q1.0625 0.59375 2.328125 0.59375q1.140625 0 2.03125 -0.46875q0.90625 -0.484375 1.59375 -1.28125l1.015625 0.984375q-0.515625 0.59375 -1.234375 1.078125q-0.703125 0.46875 -1.5625 0.75q-0.859375 0.265625 -1.84375 0.265625z" fill-rule="nonzero"/></g><path fill="#000000" fill-opacity="0.0" d="m174.61064 52.624672l54.67717 0" fill-rule="evenodd"/><path stroke="#ff00ff" stroke-width="3.0" stroke-linejoin="round" stroke-linecap="butt" d="m174.61064 52.624672l36.67717 0" fill-rule="evenodd"/><path fill="#ff00ff" stroke="#ff00ff" stroke-width="3.0" stroke-linecap="butt" d="m211.28781 57.57987l13.614288 -4.9551964l-13.614288 -4.9551964z" fill-rule="evenodd"/><g filter="url(#shadowFilter-p.8)"><use xlink:href="#p.8" transform="matrix(1.0 0.0 0.0 1.0 0.0 1.5366118110236169)"/></g><defs><filter id="shadowFilter-p.8" filterUnits="userSpaceOnUse"><feGaussianBlur in="SourceAlpha" stdDeviation="1.5366118" result="blur"/><feComponentTransfer in="blur" color-interpolation-filters="sRGB"><feFuncR type="linear" slope="0" intercept="0.0"/><feFuncG type="linear" slope="0" intercept="0.0"/><feFuncB type="linear" slope="0" intercept="0.0"/><feFuncA type="linear" slope="0.5" intercept="0"/></feComponentTransfer></filter></defs><g id="p.8"><path fill="#ff00ff" d="m407.70645 173.25737l0 0c0 -4.241516 3.4384155 -7.679947 7.6799316 -7.679947l41.04956 0c2.0368652 0 3.990265 0.80914307 5.430542 2.249405c1.4402771 1.4402771 2.2494202 3.393692 2.2494202 5.430542l0 30.718857c0 4.241516 -3.438446 7.679947 -7.679962 7.679947l-41.04956 0l0 0c-4.241516 0 -7.6799316 -3.4384308 -7.6799316 -7.679947z" fill-rule="evenodd"/><path stroke="#595959" stroke-width="0.7664041994750657" stroke-linejoin="round" stroke-linecap="butt" d="m407.70645 173.25737l0 0c0 -4.241516 3.4384155 -7.679947 7.6799316 -7.679947l41.04956 0c2.0368652 0 3.990265 0.80914307 5.430542 2.249405c1.4402771 1.4402771 2.2494202 3.393692 2.2494202 5.430542l0 30.718857c0 4.241516 -3.438446 7.679947 -7.679962 7.679947l-41.04956 0l0 0c-4.241516 0 -7.6799316 -3.4384308 -7.6799316 -7.679947z" fill-rule="evenodd"/><path fill="#000000" d="m431.46857 194.35172l0 -11.71875l3.53125 0q1.84375 0 3.15625 0.75q1.328125 0.734375 2.046875 2.0625q0.734375 1.328125 0.734375 3.046875q0 1.71875 -0.734375 3.046875q-0.71875 1.3125 -2.046875 2.0625q-1.3125 0.75 -3.15625 0.75l-3.53125 0zm1.390625 -1.328125l2.140625 0q1.375 0 2.390625 -0.53125q1.015625 -0.53125 1.5625 -1.546875q0.5625 -1.015625 0.5625 -2.453125q0 -1.4375 -0.5625 -2.453125q-0.546875 -1.015625 -1.5625 -1.546875q-1.015625 -0.53125 -2.390625 -0.53125l-2.140625 0l0 9.0625z" fill-rule="nonzero"/></g><path fill="#000000" fill-opacity="0.0" d="m360.24844 188.61679l47.46457 0" fill-rule="evenodd"/><path stroke="#ff00ff" stroke-width="3.0" stroke-linejoin="round" stroke-linecap="butt" d="m360.24844 188.61679l29.46457 0" fill-rule="evenodd"/><path fill="#ff00ff" stroke="#ff00ff" stroke-width="3.0" stroke-linecap="butt" d="m389.713 193.57199l13.614288 -4.9552l-13.614288 -4.955185z" fill-rule="evenodd"/><path fill="#000000" fill-opacity="0.0" d="m260.32193 7.0656166l56.409424 0l0 48.472443l-56.409424 0z" fill-rule="evenodd"/><path fill="#86ff86" d="m272.6147 16.065619l31.823914 0l0 28.800001l-31.823914 0l0 -28.800001z" fill-rule="nonzero"/><path fill="#000000" fill-opacity="0.0" d="m272.6147 15.921686l31.823914 0l0 30.047915l-31.823914 0l0 -30.047915z" fill-rule="nonzero"/><path fill="#000000" d="m282.47406 39.496243q-1.890625 0 -3.5 -0.703125q-1.609375 -0.703125 -2.796875 -1.9375q-1.1875 -1.234375 -1.84375 -2.84375q-0.65625 -1.625 -0.65625 -3.5q0 -1.875 0.65625 -3.484375q0.65625 -1.625 1.84375 -2.859375q1.1875 -1.234375 2.796875 -1.921875q1.609375 -0.703125 3.5 -0.703125q1.90625 0 3.5 0.703125q1.609375 0.6875 2.796875 1.921875q1.203125 1.234375 1.859375 2.859375q0.65625 1.609375 0.65625 3.484375q0 1.875 -0.65625 3.5q-0.65625 1.609375 -1.859375 2.84375q-1.1875 1.234375 -2.796875 1.9375q-1.59375 0.703125 -3.5 0.703125zm0 -1.953125q1.875 0 3.390625 -0.890625q1.53125 -0.890625 2.4375 -2.484375q0.921875 -1.59375 0.921875 -3.65625q0 -2.09375 -0.921875 -3.671875q-0.90625 -1.578125 -2.4375 -2.46875q-1.515625 -0.890625 -3.390625 -0.890625q-1.84375 0 -3.390625 0.890625q-1.53125 0.890625 -2.4375 2.46875q-0.90625 1.578125 -0.90625 3.671875q0 2.0625 0.90625 3.65625q0.90625 1.59375 2.4375 2.484375q1.546875 0.890625 3.390625 0.890625zm11.352936 1.5625l0 -17.1875l2.046875 0l0 17.1875l-2.046875 0zm0.765625 -2.5l0 -2.609375l7.03125 -7.125l2.59375 0l0 0.09375l-9.625 9.640625zm7.328125 2.5l-4.421875 -6.578125l1.4375 -1.40625l5.4375 7.890625l0 0.09375l-2.453125 0z" fill-rule="nonzero"/><path fill="#000000" fill-opacity="0.0" d="m304.4386 15.921686l0 0l0 30.047915l0 0l0 -30.047915z" fill-rule="nonzero"/><path fill="#000000" fill-opacity="0.0" d="m242.2677 63.102364l65.763794 0l0 48.472443l-65.763794 0z" fill-rule="evenodd"/><path fill="#f4cccc" d="m259.74164 72.10236l30.815918 0l0 28.800003l-30.815918 0l0 -28.800003z" fill-rule="nonzero"/><path fill="#000000" fill-opacity="0.0" d="m259.74164 71.958435l30.815918 0l0 30.047913l-30.815918 0l0 -30.047913z" fill-rule="nonzero"/><path fill="#000000" d="m261.63226 95.142365l0 -17.1875l9.9375 0l0 1.953125l-7.890625 0l0 13.296875l7.890625 0l0 1.9375l-9.9375 0zm1.078125 -7.625l0 -1.921875l8.09375 0l0 1.921875l-8.09375 0zm11.571594 7.625l0 -12.234375l1.953125 0l0 1.96875l0.09375 0q0.234375 -0.703125 0.796875 -1.21875q0.5625 -0.515625 1.296875 -0.8125q0.734375 -0.296875 1.453125 -0.296875q0.546875 0 0.859375 0.0625q0.3125 0.046875 0.578125 0.171875l0 2.203125q-0.375 -0.1875 -0.828125 -0.28125q-0.4375 -0.09375 -0.890625 -0.09375q-0.890625 0 -1.640625 0.5q-0.734375 0.5 -1.1875 1.34375q-0.4375 0.84375 -0.4375 1.84375l0 6.84375l-2.046875 0zm8.879974 0l0 -12.234375l1.953125 0l0 1.96875l0.09375 0q0.234375 -0.703125 0.796875 -1.21875q0.5625 -0.515625 1.296875 -0.8125q0.734375 -0.296875 1.453125 -0.296875q0.546875 0 0.859375 0.0625q0.3125 0.046875 0.578125 0.171875l0 2.203125q-0.375 -0.1875 -0.828125 -0.28125q-0.4375 -0.09375 -0.890625 -0.09375q-0.890625 0 -1.640625 0.5q-0.734375 0.5 -1.1875 1.34375q-0.4375 0.84375 -0.4375 1.84375l0 6.84375l-2.046875 0z" fill-rule="nonzero"/><path fill="#000000" fill-opacity="0.0" d="m290.55756 71.958435l0 0l0 30.047913l0 0l0 -30.047913z" fill-rule="nonzero"/><g filter="url(#shadowFilter-p.9)"><use xlink:href="#p.9" transform="matrix(1.0 0.0 0.0 1.0 0.0 2.0)"/></g><defs><filter id="shadowFilter-p.9" filterUnits="userSpaceOnUse"><feGaussianBlur in="SourceAlpha" stdDeviation="2.0" result="blur"/><feComponentTransfer in="blur" color-interpolation-filters="sRGB"><feFuncR type="linear" slope="0" intercept="0.0"/><feFuncG type="linear" slope="0" intercept="0.0"/><feFuncB type="linear" slope="0" intercept="0.0"/><feFuncA type="linear" slope="0.5" intercept="0"/></feComponentTransfer></filter></defs><g id="p.9"><path fill="#ff00ff" d="m220.6538 108.0289l0 0c0 2.1678238 12.627686 3.9251938 28.204712 3.9251938c15.577042 0 28.204727 -1.75737 28.204727 -3.9251938l0 23.551178c0 2.1678314 -12.627686 3.9252014 -28.204727 3.9252014c-15.577026 0 -28.204712 -1.75737 -28.204712 -3.9252014z" fill-rule="evenodd"/><path fill="#ff66ff" d="m220.6538 108.0289l0 0c0 -2.1678238 12.627686 -3.9251938 28.204712 -3.9251938c15.577042 0 28.204727 1.75737 28.204727 3.9251938l0 0c0 2.1678238 -12.627686 3.9251938 -28.204727 3.9251938c-15.577026 0 -28.204712 -1.75737 -28.204712 -3.9251938z" fill-rule="evenodd"/><path fill="#000000" fill-opacity="0.0" d="m277.06323 108.0289l0 0c0 2.1678238 -12.627686 3.9251938 -28.204727 3.9251938c-15.577026 0 -28.204712 -1.75737 -28.204712 -3.9251938l0 0c0 -2.1678238 12.627686 -3.9251938 28.204712 -3.9251938c15.577042 0 28.204727 1.75737 28.204727 3.9251938l0 23.551178c0 2.1678314 -12.627686 3.9252014 -28.204727 3.9252014c-15.577026 0 -28.204712 -1.75737 -28.204712 -3.9252014l0 -23.551178" fill-rule="evenodd"/><path stroke="#595959" stroke-width="1.0" stroke-linejoin="round" stroke-linecap="butt" d="m277.06323 108.0289l0 0c0 2.1678238 -12.627686 3.9251938 -28.204727 3.9251938c-15.577026 0 -28.204712 -1.75737 -28.204712 -3.9251938l0 0c0 -2.1678238 12.627686 -3.9251938 28.204712 -3.9251938c15.577042 0 28.204727 1.75737 28.204727 3.9251938l0 23.551178c0 2.1678314 -12.627686 3.9252014 -28.204727 3.9252014c-15.577026 0 -28.204712 -1.75737 -28.204712 -3.9252014l0 -23.551178" fill-rule="evenodd"/></g><path fill="#000000" fill-opacity="0.0" d="m4.727034 152.72966l529.22833 0" fill-rule="evenodd"/><path stroke="#d9d9d9" stroke-width="3.0" stroke-linejoin="round" stroke-linecap="butt" stroke-dasharray="12.0,9.0" d="m4.727034 152.72966l529.22833 0" fill-rule="evenodd"/><g filter="url(#shadowFilter-p.10)"><use xlink:href="#p.10" transform="matrix(1.0 0.0 0.0 1.0 0.0 0.9374039370078563)"/></g><defs><filter id="shadowFilter-p.10" filterUnits="userSpaceOnUse"><feGaussianBlur in="SourceAlpha" stdDeviation="0.937404" result="blur"/><feComponentTransfer in="blur" color-interpolation-filters="sRGB"><feFuncR type="linear" slope="0" intercept="0.0"/><feFuncG type="linear" slope="0" intercept="0.0"/><feFuncB type="linear" slope="0" intercept="0.0"/><feFuncA type="linear" slope="0.5" intercept="0"/></feComponentTransfer></filter></defs><g id="p.10"><path fill="#43e543" d="m237.6245 188.61737l0 0c0 -6.2020416 5.0295563 -11.229797 11.233826 -11.229797l0 0c2.9793854 0 5.8367615 1.183136 7.9434967 3.2891388c2.1067505 2.1059875 3.2903137 4.962326 3.2903137 7.9406586l0 0c0 6.2020416 -5.029541 11.229782 -11.23381 11.229782l0 0c-6.2042694 0 -11.233826 -5.0277405 -11.233826 -11.229782z" fill-rule="evenodd"/></g><g filter="url(#shadowFilter-p.11)"><use xlink:href="#p.11" transform="matrix(1.0 0.0 0.0 1.0 0.0 0.9374039370078563)"/></g><defs><filter id="shadowFilter-p.11" filterUnits="userSpaceOnUse"><feGaussianBlur in="SourceAlpha" stdDeviation="0.937404" result="blur"/><feComponentTransfer in="blur" color-interpolation-filters="sRGB"><feFuncR type="linear" slope="0" intercept="0.0"/><feFuncG type="linear" slope="0" intercept="0.0"/><feFuncB type="linear" slope="0" intercept="0.0"/><feFuncA type="linear" slope="0.5" intercept="0"/></feComponentTransfer></filter></defs><g id="p.11"><path fill="#ffffff" d="m244.8576 182.09146l11.216309 6.525177l-11.216309 6.525177z" fill-rule="evenodd"/><path stroke="#ffffff" stroke-width="3.7506561679790025" stroke-linejoin="round" stroke-linecap="butt" d="m244.8576 182.09146l11.216309 6.525177l-11.216309 6.525177z" fill-rule="evenodd"/></g><path fill="#000000" fill-opacity="0.0" d="m248.8585 135.50528l0 41.889755" fill-rule="evenodd"/><path stroke="#434343" stroke-width="2.0" stroke-linejoin="round" stroke-linecap="butt" stroke-dasharray="2.0,6.0" d="m248.85852 135.50528l0 29.889755" fill-rule="evenodd"/><path fill="#434343" stroke="#434343" stroke-width="2.0" stroke-linecap="butt" d="m245.55505 165.39503l3.3034668 9.076187l3.3034515 -9.076187z" fill-rule="evenodd"/><path fill="#000000" fill-opacity="0.0" d="m260.09213 188.61737l43.748047 0" fill-rule="evenodd"/><path stroke="#ff00ff" stroke-width="3.0" stroke-linejoin="round" stroke-linecap="butt" d="m260.09216 188.61737l25.748016 0" fill-rule="evenodd"/><path fill="#ff00ff" stroke="#ff00ff" stroke-width="3.0" stroke-linecap="butt" d="m285.84018 193.57257l13.614288 -4.9552l-13.614288 -4.9552z" fill-rule="evenodd"/><g filter="url(#shadowFilter-p.12)"><use xlink:href="#p.12" transform="matrix(1.0 0.0 0.0 1.0 0.0 0.9376120734908279)"/></g><defs><filter id="shadowFilter-p.12" filterUnits="userSpaceOnUse"><feGaussianBlur in="SourceAlpha" stdDeviation="0.93761224" result="blur"/><feComponentTransfer in="blur" color-interpolation-filters="sRGB"><feFuncR type="linear" slope="0" intercept="0.0"/><feFuncG type="linear" slope="0" intercept="0.0"/><feFuncB type="linear" slope="0" intercept="0.0"/><feFuncA type="linear" slope="0.5" intercept="0"/></feComponentTransfer></filter></defs><g id="p.12"><path fill="#212121" d="m502.81415 188.61662l0 0c0 -6.2042694 5.029541 -11.233826 11.233826 -11.233826l0 0c2.97937 0 5.836731 1.1835632 7.9434814 3.2903137c2.1067505 2.1067505 3.2903442 4.9641113 3.2903442 7.943512l0 0c0 6.2042694 -5.029541 11.233826 -11.233826 11.233826l0 0c-6.2042847 0 -11.233826 -5.0295563 -11.233826 -11.233826z" fill-rule="evenodd"/><path stroke="#ffffff" stroke-width="0.937007874015748" stroke-linejoin="round" stroke-linecap="butt" d="m502.81415 188.61662l0 0c0 -6.2042694 5.029541 -11.233826 11.233826 -11.233826l0 0c2.97937 0 5.836731 1.1835632 7.9434814 3.2903137c2.1067505 2.1067505 3.2903442 4.9641113 3.2903442 7.943512l0 0c0 6.2042694 -5.029541 11.233826 -11.233826 11.233826l0 0c-6.2042847 0 -11.233826 -5.0295563 -11.233826 -11.233826z" fill-rule="evenodd"/></g><g filter="url(#shadowFilter-p.13)"><use xlink:href="#p.13" transform="matrix(1.0 0.0 0.0 1.0 0.0 0.9376120734908279)"/></g><defs><filter id="shadowFilter-p.13" filterUnits="userSpaceOnUse"><feGaussianBlur in="SourceAlpha" stdDeviation="0.93761224" result="blur"/><feComponentTransfer in="blur" color-interpolation-filters="sRGB"><feFuncR type="linear" slope="0" intercept="0.0"/><feFuncG type="linear" slope="0" intercept="0.0"/><feFuncB type="linear" slope="0" intercept="0.0"/><feFuncA type="linear" slope="0.5" intercept="0"/></feComponentTransfer></filter></defs><g id="p.13"><path fill="#ffff00" d="m505.69266 186.03073l6.381256 4.5776367E-5l1.9718628 -6.0635223l1.9718628 6.0635223l6.3812866 -4.5776367E-5l-5.1625977 3.7474365l1.9719849 6.063507l-5.1625366 -3.7474976l-5.162506 3.7474976l1.9719543 -6.063507z" fill-rule="evenodd"/><path stroke="#ffff00" stroke-width="1.4068241469816272" stroke-linejoin="round" stroke-linecap="butt" d="m505.69266 186.03073l6.381256 4.5776367E-5l1.9718628 -6.0635223l1.9718628 6.0635223l6.3812866 -4.5776367E-5l-5.1625977 3.7474365l1.9719849 6.063507l-5.1625366 -3.7474976l-5.162506 3.7474976l1.9719543 -6.063507z" fill-rule="evenodd"/></g><path fill="#000000" fill-opacity="0.0" d="m464.1159 188.61679l38.70865 0" fill-rule="evenodd"/><path stroke="#ff00ff" stroke-width="3.0" stroke-linejoin="round" stroke-linecap="butt" d="m464.1159 188.61679l20.708649 0" fill-rule="evenodd"/><path fill="#ff00ff" stroke="#ff00ff" stroke-width="3.0" stroke-linecap="butt" d="m484.82455 193.57199l13.614288 -4.9552l-13.614288 -4.955185z" fill-rule="evenodd"/><path fill="#000000" fill-opacity="0.0" d="m6.8083987 150.42783l133.00787 0l0 35.55905l-133.00787 0z" fill-rule="evenodd"/><path fill="#ffffff" d="m15.808399 159.42783l49.727047 0l0 16.0l-49.727047 0l0 -16.0z" fill-rule="nonzero"/><path fill="#000000" fill-opacity="0.0" d="m15.808399 159.3529l49.727047 0l0 16.686737l-49.727047 0l0 -16.686737z" fill-rule="nonzero"/><path fill="#000000" d="m19.8084 172.44656q-1.03125 0 -1.828125 -0.46875q-0.796875 -0.46875 -1.25 -1.28125q-0.453125 -0.828125 -0.453125 -1.875q0 -1.046875 0.453125 -1.859375q0.453125 -0.8125 1.25 -1.28125q0.796875 -0.46875 1.828125 -0.46875q1.140625 0 1.9375 0.5q0.796875 0.484375 1.140625 1.375l-1.453125 0.609375q-0.234375 -0.5 -0.640625 -0.75q-0.40625 -0.25 -1.0 -0.25q-0.53125 0 -0.96875 0.265625q-0.4375 0.25 -0.703125 0.734375q-0.265625 0.484375 -0.265625 1.125q0 0.65625 0.265625 1.140625q0.265625 0.484375 0.703125 0.75q0.4375 0.265625 0.96875 0.265625q0.625 0 1.046875 -0.28125q0.421875 -0.28125 0.65625 -0.78125l1.4375 0.640625q-0.390625 0.828125 -1.1875 1.359375q-0.796875 0.53125 -1.9375 0.53125zm4.30748 -0.21875l0 -9.546875l1.578125 0l0 9.546875l-1.578125 0zm6.406006 0.21875q-1.03125 0 -1.828125 -0.46875q-0.78125 -0.46875 -1.234375 -1.28125q-0.453125 -0.8125 -0.453125 -1.859375q0 -0.96875 0.4375 -1.796875q0.4375 -0.828125 1.203125 -1.328125q0.78125 -0.5 1.796875 -0.5q1.078125 0 1.8125 0.46875q0.75 0.453125 1.125 1.234375q0.390625 0.78125 0.390625 1.75q0 0.171875 -0.015625 0.3125q-0.015625 0.140625 -0.015625 0.21875l-5.84375 0l0 -1.171875l4.3125 0q0 -0.234375 -0.125 -0.484375q-0.109375 -0.265625 -0.34375 -0.484375q-0.21875 -0.234375 -0.546875 -0.375q-0.3125 -0.140625 -0.734375 -0.140625q-0.546875 0 -0.984375 0.28125q-0.4375 0.28125 -0.6875 0.78125q-0.234375 0.5 -0.234375 1.1875q0 0.734375 0.265625 1.234375q0.28125 0.5 0.734375 0.75q0.453125 0.25 1.0 0.25q0.65625 0 1.09375 -0.28125q0.453125 -0.296875 0.703125 -0.734375l1.296875 0.625q-0.46875 0.828125 -1.234375 1.328125q-0.765625 0.484375 -1.890625 0.484375zm6.6723785 0q-0.734375 0 -1.296875 -0.28125q-0.546875 -0.296875 -0.875 -0.8125q-0.3125 -0.53125 -0.3125 -1.1875q0 -0.71875 0.375 -1.234375q0.375 -0.515625 1.0 -0.78125q0.625 -0.28125 1.390625 -0.28125q0.421875 0 0.765625 0.0625q0.359375 0.046875 0.625 0.125q0.28125 0.078125 0.4375 0.15625l0 -0.3125q0 -0.609375 -0.453125 -0.984375q-0.4375 -0.390625 -1.171875 -0.390625q-0.5 0 -0.953125 0.234375q-0.453125 0.21875 -0.75 0.609375l-1.046875 -0.828125q0.3125 -0.421875 0.734375 -0.71875q0.4375 -0.296875 0.96875 -0.453125q0.53125 -0.15625 1.09375 -0.15625q1.53125 0 2.328125 0.734375q0.8125 0.71875 0.8125 2.0625l0 4.21875l-1.5625 0l0 -0.765625l-0.09375 0q-0.171875 0.265625 -0.46875 0.484375q-0.28125 0.21875 -0.671875 0.359375q-0.390625 0.140625 -0.875 0.140625zm0.34375 -1.265625q0.546875 0 0.9375 -0.25q0.40625 -0.25 0.609375 -0.65625q0.21875 -0.40625 0.21875 -0.859375q-0.296875 -0.171875 -0.6875 -0.265625q-0.390625 -0.09375 -0.8125 -0.09375q-0.828125 0 -1.171875 0.328125q-0.328125 0.3125 -0.328125 0.78125q0 0.4375 0.3125 0.734375q0.328125 0.28125 0.921875 0.28125zm4.9172974 1.046875l0 -6.796875l1.484375 0l0 0.890625l0.09375 0q0.296875 -0.484375 0.859375 -0.796875q0.578125 -0.3125 1.25 -0.3125q1.25 0 1.875 0.765625q0.640625 0.75 0.640625 1.984375l0 4.265625l-1.59375 0l0 -4.046875q0 -0.75 -0.375 -1.109375q-0.375 -0.375 -1.0 -0.375q-0.5 0 -0.875 0.28125q-0.359375 0.265625 -0.578125 0.71875q-0.203125 0.4375 -0.203125 0.96875l0 3.5625l-1.578125 0zm10.276703 0.21875q-1.25 0 -1.890625 -0.765625q-0.625 -0.765625 -0.625 -2.078125l0 -4.171875l1.59375 0l0 3.96875q0 0.78125 0.375 1.1875q0.375 0.390625 0.9375 0.390625q0.53125 0 0.921875 -0.265625q0.390625 -0.28125 0.578125 -0.734375q0.203125 -0.453125 0.203125 -0.984375l0 -3.5625l1.609375 0l0 6.796875l-1.515625 0l0 -0.890625l-0.09375 0q-0.171875 0.3125 -0.5 0.578125q-0.328125 0.25 -0.734375 0.390625q-0.390625 0.140625 -0.859375 0.140625zm5.370453 2.65625l0 -9.671875l1.484375 0l0 0.875l0.09375 0q0.171875 -0.28125 0.46875 -0.53125q0.3125 -0.25 0.71875 -0.40625q0.421875 -0.15625 0.921875 -0.15625q0.9375 0 1.671875 0.46875q0.7343712 0.453125 1.1718712 1.265625q0.4375 0.8125 0.4375 1.875q0 1.078125 -0.4375 1.890625q-0.4375 0.8125 -1.1718712 1.28125q-0.734375 0.453125 -1.671875 0.453125q-0.75 0 -1.296875 -0.328125q-0.546875 -0.328125 -0.8125 -0.75l-0.09375 0l0.09375 0.953125l0 2.78125l-1.578125 0zm3.4375 -4.125q0.515625 0 0.953125 -0.25q0.4375 -0.265625 0.703125 -0.75q0.28125 -0.5 0.28125 -1.15625q0 -0.65625 -0.28125 -1.125q-0.265625 -0.484375 -0.703125 -0.734375q-0.4375 -0.265625 -0.953125 -0.265625q-0.515625 0 -0.96875 0.265625q-0.4375 0.25 -0.71875 0.734375q-0.265625 0.484375 -0.265625 1.125q0 0.65625 0.265625 1.140625q0.28125 0.484375 0.71875 0.75q0.453125 0.265625 0.96875 0.265625z" fill-rule="nonzero"/><path fill="#010000" fill-opacity="0.0" d="m65.535446 159.3529l0 0l0 16.686737l0 0l0 -16.686737z" fill-rule="nonzero"/></g></svg>