<svg version="1.1" viewBox="0.0 0.0 740.9212598425197 248.86614173228347" fill="none" stroke="none" stroke-linecap="square" stroke-miterlimit="10" xmlns:xlink="http://www.w3.org/1999/xlink" xmlns="http://www.w3.org/2000/svg"><clipPath id="p.0"><path d="m0 0l740.92126 0l0 248.86613l-740.92126 0l0 -248.86613z" clip-rule="nonzero"/></clipPath><g clip-path="url(#p.0)"><path fill="#000000" fill-opacity="0.0" d="m0 0l740.92126 0l0 248.86613l-740.92126 0z" fill-rule="evenodd"/><path fill="#ffffff" fill-opacity="0.2941" d="m3.5853019 17.105627l0 0c0 -7.836708 6.3529077 -14.189617 14.189617 -14.189617l705.0381 0c3.7633667 0 7.3724976 1.4949732 10.033569 4.1560426c2.6610718 2.6610699 4.156067 6.270254 4.156067 10.033574l0 214.80188c0 7.8367004 -6.3529053 14.189606 -14.189636 14.189606l-705.0381 0c-7.83671 0 -14.189617 -6.3529053 -14.189617 -14.189606z" fill-rule="evenodd"/><path stroke="#d9d9d9" stroke-width="3.0" stroke-linejoin="round" stroke-linecap="butt" d="m3.5853019 17.105627l0 0c0 -7.836708 6.3529077 -14.189617 14.189617 -14.189617l705.0381 0c3.7633667 0 7.3724976 1.4949732 10.033569 4.1560426c2.6610718 2.6610699 4.156067 6.270254 4.156067 10.033574l0 214.80188c0 7.8367004 -6.3529053 14.189606 -14.189636 14.189606l-705.0381 0c-7.83671 0 -14.189617 -6.3529053 -14.189617 -14.189606z" fill-rule="evenodd"/><g filter="url(#shadowFilter-p.1)"><use xlink:href="#p.1" transform="matrix(1.0 0.0 0.0 1.0 0.0 2.0)"/></g><defs><filter id="shadowFilter-p.1" filterUnits="userSpaceOnUse"><feGaussianBlur in="SourceAlpha" stdDeviation="2.0" result="blur"/><feComponentTransfer in="blur" color-interpolation-filters="sRGB"><feFuncR type="linear" slope="0" intercept="0.0"/><feFuncG type="linear" slope="0" intercept="0.0"/><feFuncB type="linear" slope="0" intercept="0.0"/><feFuncA type="linear" slope="0.5" intercept="0"/></feComponentTransfer></filter></defs><g id="p.1"><path fill="#f3f3f3" d="m197.04462 40.70961l0 0c0 -8.796492 7.130966 -15.927458 15.92746 -15.927458l202.03485 0c4.2242126 0 8.275421 1.6780663 11.262421 4.665045c2.986969 2.9869766 4.665039 7.038189 4.665039 11.262413l0 167.2632c0 8.796494 -7.1309814 15.92746 -15.92746 15.92746l-202.03485 0l0 0c-8.796494 0 -15.92746 -7.130966 -15.92746 -15.92746z" fill-rule="evenodd"/><path stroke="#595959" stroke-width="1.0" stroke-linejoin="round" stroke-linecap="butt" d="m197.04462 40.70961l0 0c0 -8.796492 7.130966 -15.927458 15.92746 -15.927458l202.03485 0c4.2242126 0 8.275421 1.6780663 11.262421 4.665045c2.986969 2.9869766 4.665039 7.038189 4.665039 11.262413l0 167.2632c0 8.796494 -7.1309814 15.92746 -15.92746 15.92746l-202.03485 0l0 0c-8.796494 0 -15.92746 -7.130966 -15.92746 -15.92746z" fill-rule="evenodd"/><path fill="#000000" d="m235.7987 60.20714l0 -16.21875l5.46875 0q1.359375 0 2.5 0.609375q1.15625 0.609375 1.84375 1.6875q0.6875 1.078125 0.6875 2.5q0 0.859375 -0.3125 1.71875q-0.3125 0.84375 -0.984375 1.546875q-0.671875 0.703125 -1.703125 1.125q-1.03125 0.421875 -2.453125 0.421875l-4.03125 0l0 -1.796875l4.34375 0q0.84375 0 1.5625 -0.375q0.734375 -0.390625 1.1875 -1.0625q0.453125 -0.6875 0.453125 -1.578125q0 -0.71875 -0.375 -1.390625q-0.375 -0.6875 -1.0625 -1.125q-0.671875 -0.453125 -1.625 -0.453125l-3.578125 0l0 14.390625l-1.921875 0zm3.90625 -7.4375l2.109375 -0.109375l5.125 7.453125l0 0.09375l-2.265625 0l-4.96875 -7.4375zm16.999207 7.796875q-1.7968903 0 -3.3125153 -0.65625q-1.515625 -0.65625 -2.640625 -1.8125q-1.109375 -1.171875 -1.734375 -2.703125q-0.625 -1.53125 -0.625 -3.296875q0 -1.765625 0.625 -3.296875q0.625 -1.53125 1.734375 -2.6875q1.125 -1.171875 2.640625 -1.828125q1.515625 -0.65625 3.3125153 -0.65625q1.78125 0 3.296875 0.65625q1.53125 0.65625 2.640625 1.828125q1.125 1.15625 1.75 2.6875q0.625 1.53125 0.625 3.296875q0 1.765625 -0.625 3.296875q-0.625 1.53125 -1.75 2.703125q-1.109375 1.15625 -2.640625 1.8125q-1.515625 0.65625 -3.296875 0.65625zm0 -1.828125q1.765625 0 3.203125 -0.84375q1.4375 -0.84375 2.296875 -2.34375q0.859375 -1.5 0.859375 -3.453125q0 -1.96875 -0.859375 -3.46875q-0.859375 -1.5 -2.296875 -2.328125q-1.4375 -0.84375 -3.203125 -0.84375q-1.7500153 0 -3.2031403 0.84375q-1.4375 0.828125 -2.3125 2.328125q-0.859375 1.5 -0.859375 3.46875q0 1.953125 0.859375 3.453125q0.875 1.5 2.3125 2.34375q1.453125 0.84375 3.2031403 0.84375zm15.4123535 1.828125q-1.1875 0 -2.34375 -0.5q-1.15625 -0.5 -2.046875 -1.46875q-0.875 -0.96875 -1.28125 -2.421875l1.828125 -0.75q0.390625 1.40625 1.40625 2.359375q1.03125 0.953125 2.46875 0.953125q0.90625 0 1.671875 -0.328125q0.765625 -0.328125 1.21875 -0.953125q0.46875 -0.640625 0.46875 -1.546875q0 -0.828125 -0.40625 -1.390625q-0.390625 -0.5625 -1.1875 -1.0q-0.78125 -0.453125 -1.9375 -0.859375l-1.015625 -0.359375q-0.6875 -0.25 -1.375 -0.59375q-0.6875 -0.359375 -1.265625 -0.859375q-0.578125 -0.515625 -0.921875 -1.234375q-0.34375 -0.71875 -0.34375 -1.6875q0 -1.171875 0.625 -2.140625q0.640625 -0.984375 1.75 -1.5625q1.109375 -0.59375 2.5625 -0.59375q1.515625 0 2.546875 0.5625q1.03125 0.546875 1.625 1.3125q0.609375 0.75 0.8125 1.375l-1.78125 0.78125q-0.140625 -0.484375 -0.53125 -0.984375q-0.375 -0.515625 -1.03125 -0.859375q-0.640625 -0.359375 -1.609375 -0.359375q-0.796875 0 -1.484375 0.328125q-0.6875 0.3125 -1.109375 0.875q-0.421875 0.546875 -0.421875 1.265625q0 1.015625 0.8125 1.609375q0.8125 0.59375 2.203125 1.0625l1.0625 0.359375q0.71875 0.25 1.46875 0.625q0.765625 0.359375 1.421875 0.921875q0.671875 0.5625 1.078125 1.390625q0.40625 0.828125 0.40625 1.984375q0 1.25 -0.5 2.140625q-0.484375 0.890625 -1.28125 1.46875q-0.78125 0.5625 -1.71875 0.8125q-0.9375 0.265625 -1.84375 0.265625zm12.502289 -0.359375l0 -1.921875q0.0625 -0.078125 0.40625 -0.4375q0.34375 -0.375 0.859375 -0.953125q0.515625 -0.578125 1.109375 -1.25q0.609375 -0.671875 1.21875 -1.34375q0.609375 -0.6875 1.125 -1.25q0.53125 -0.5625 0.84375 -0.90625q1.078125 -1.15625 1.578125 -2.046875q0.515625 -0.90625 0.515625 -1.890625q0 -0.75 -0.375 -1.375q-0.359375 -0.625 -1.03125 -1.0q-0.65625 -0.375 -1.546875 -0.375q-0.828125 0 -1.453125 0.359375q-0.625 0.359375 -1.0 0.890625q-0.375 0.515625 -0.484375 1.015625l-1.75 -0.703125q0.140625 -0.46875 0.484375 -1.046875q0.359375 -0.578125 0.9375 -1.125q0.59375 -0.546875 1.4375 -0.875q0.84375 -0.34375 1.921875 -0.34375q1.515625 0 2.59375 0.65625q1.078125 0.65625 1.65625 1.6875q0.59375 1.03125 0.59375 2.203125q0 1.015625 -0.4375 2.0q-0.421875 0.96875 -1.03125 1.796875q-0.609375 0.828125 -1.171875 1.421875q-0.296875 0.28125 -0.8125 0.84375q-0.5 0.546875 -1.09375 1.203125q-0.59375 0.640625 -1.15625 1.25q-0.5625 0.609375 -0.984375 1.0625q-0.421875 0.453125 -0.578125 0.625l0 0l7.40625 0l0 1.828125l-9.78125 0zm17.924988 0l0 -16.21875l5.453125 0q1.359375 0 2.515625 0.609375q1.15625 0.609375 1.84375 1.6875q0.6875 1.078125 0.6875 2.5q0 1.40625 -0.6875 2.5q-0.6875 1.078125 -1.84375 1.703125q-1.15625 0.609375 -2.515625 0.609375l-4.4375 0l0 -1.84375l4.484375 0q0.953125 0 1.625 -0.4375q0.6875 -0.4375 1.0625 -1.109375q0.375 -0.6875 0.375 -1.421875q0 -0.71875 -0.375 -1.390625q-0.375 -0.6875 -1.0625 -1.125q-0.671875 -0.453125 -1.625 -0.453125l-3.578125 0l0 14.390625l-1.921875 0zm16.801514 0.359375q-2.125 0 -3.203125 -1.234375q-1.078125 -1.25 -1.078125 -3.40625l0 -7.265625l1.921875 0l0 6.96875q0 1.71875 0.796875 2.46875q0.796875 0.734375 1.96875 0.734375q1.015625 0 1.765625 -0.53125q0.75 -0.546875 1.15625 -1.375q0.40625 -0.84375 0.40625 -1.75l0 -6.515625l1.9375 0l0 11.546875l-1.84375 0l0 -1.671875l-0.09375 0q-0.28125 0.546875 -0.859375 1.015625q-0.578125 0.453125 -1.328125 0.734375q-0.734375 0.28125 -1.546875 0.28125zm14.3367 0q-0.921875 0 -1.703125 -0.296875q-0.765625 -0.28125 -1.34375 -0.75q-0.578125 -0.484375 -0.890625 -1.015625l-0.09375 0l0 1.703125l-1.828125 0l0 -16.21875l1.921875 0l0 4.78125l-0.09375 1.609375l0.09375 0q0.3125 -0.546875 0.890625 -1.015625q0.578125 -0.484375 1.34375 -0.78125q0.78125 -0.296875 1.703125 -0.296875q1.59375 0 2.828125 0.796875q1.25 0.796875 1.96875 2.1875q0.734375 1.375 0.734375 3.15625q0 1.796875 -0.734375 3.1875q-0.71875 1.375 -1.96875 2.171875q-1.234375 0.78125 -2.828125 0.78125zm-0.203125 -1.734375q1.0 0 1.875 -0.53125q0.875 -0.546875 1.40625 -1.53125q0.53125 -1.0 0.53125 -2.34375q0 -1.359375 -0.53125 -2.34375q-0.53125 -0.984375 -1.40625 -1.515625q-0.875 -0.53125 -1.875 -0.53125q-0.984375 0 -1.859375 0.53125q-0.875 0.53125 -1.421875 1.515625q-0.546875 0.984375 -0.546875 2.34375q0 1.359375 0.546875 2.34375q0.546875 0.984375 1.421875 1.53125q0.875 0.53125 1.859375 0.53125zm7.9374695 1.375l0 -16.21875l1.921875 0l0 16.21875l-1.921875 0zm4.735138 0l0 -11.546875l1.921875 0l0 11.546875l-1.921875 0zm0.953125 -13.6875q-0.5625 0 -0.984375 -0.40625q-0.40625 -0.40625 -0.40625 -0.96875q0 -0.59375 0.40625 -0.984375q0.421875 -0.40625 0.984375 -0.40625q0.578125 0 0.96875 0.40625q0.40625 0.390625 0.40625 0.984375q0 0.5625 -0.40625 0.96875q-0.390625 0.40625 -0.96875 0.40625zm7.8132935 14.046875q-1.296875 0 -2.28125 -0.40625q-0.984375 -0.421875 -1.625 -1.140625q-0.640625 -0.71875 -0.96875 -1.546875l1.71875 -0.78125q0.453125 1.046875 1.3125 1.609375q0.875 0.5625 1.984375 0.5625q1.0625 0 1.765625 -0.421875q0.71875 -0.4375 0.71875 -1.265625q0 -0.53125 -0.296875 -0.875q-0.296875 -0.359375 -0.859375 -0.59375q-0.5625 -0.25 -1.375 -0.46875l-1.40625 -0.359375q-0.8125 -0.21875 -1.546875 -0.625q-0.71875 -0.40625 -1.171875 -1.046875q-0.4375 -0.65625 -0.4375 -1.59375q0 -1.03125 0.609375 -1.78125q0.625 -0.75 1.609375 -1.140625q1.0 -0.40625 2.140625 -0.40625q1.0 0 1.859375 0.296875q0.875 0.28125 1.53125 0.84375q0.65625 0.546875 1.0 1.359375l-1.671875 0.765625q-0.4375 -0.859375 -1.171875 -1.1875q-0.71875 -0.34375 -1.59375 -0.34375q-0.953125 0 -1.65625 0.421875q-0.703125 0.40625 -0.703125 1.140625q0 0.71875 0.578125 1.078125q0.578125 0.359375 1.421875 0.59375l1.671875 0.421875q1.703125 0.4375 2.5625 1.296875q0.859375 0.84375 0.859375 2.0625q0 1.09375 -0.609375 1.890625q-0.609375 0.78125 -1.65625 1.21875q-1.046875 0.421875 -2.3125 0.421875zm6.639801 -0.359375l0 -16.21875l1.921875 0l0 4.78125l-0.09375 1.578125l0.09375 0q0.453125 -0.859375 1.484375 -1.453125q1.03125 -0.609375 2.28125 -0.609375q1.46875 0 2.421875 0.59375q0.953125 0.59375 1.421875 1.609375q0.484375 1.0 0.484375 2.3125l0 7.40625l-1.921875 0l0 -7.109375q0 -1.109375 -0.40625 -1.78125q-0.390625 -0.671875 -1.046875 -0.96875q-0.640625 -0.3125 -1.40625 -0.3125q-0.953125 0 -1.703125 0.546875q-0.75 0.546875 -1.1875 1.40625q-0.421875 0.859375 -0.421875 1.78125l0 6.4375l-1.921875 0zm17.873413 0.359375q-1.671875 0 -2.984375 -0.78125q-1.296875 -0.796875 -2.03125 -2.171875q-0.734375 -1.390625 -0.734375 -3.15625q0 -1.65625 0.6875 -3.0625q0.6875 -1.40625 1.9375 -2.25q1.265625 -0.859375 2.96875 -0.859375q1.71875 0 2.953125 0.765625q1.234375 0.75 1.90625 2.09375q0.671875 1.34375 0.671875 3.0625q0 0.15625 -0.015625 0.3125q-0.015625 0.15625 -0.03125 0.265625l-9.953125 0l0 -1.578125l7.953125 0q-0.015625 -0.46875 -0.21875 -1.03125q-0.1875 -0.5625 -0.609375 -1.046875q-0.421875 -0.484375 -1.0625 -0.78125q-0.640625 -0.3125 -1.59375 -0.3125q-1.140625 0 -1.96875 0.578125q-0.8125 0.578125 -1.265625 1.578125q-0.4375 1.0 -0.4375 2.265625q0 1.46875 0.5625 2.453125q0.5625 0.96875 1.453125 1.453125q0.90625 0.46875 1.875 0.46875q1.28125 0 2.09375 -0.59375q0.828125 -0.609375 1.328125 -1.5l1.640625 0.796875q-0.6875 1.3125 -1.953125 2.171875q-1.265625 0.859375 -3.171875 0.859375zm7.569519 -0.359375l0 -11.546875l1.828125 0l0 1.84375l0.09375 0q0.234375 -0.65625 0.765625 -1.140625q0.53125 -0.484375 1.21875 -0.765625q0.6875 -0.28125 1.375 -0.28125q0.515625 0 0.8125 0.0625q0.296875 0.046875 0.546875 0.15625l0 2.09375q-0.359375 -0.1875 -0.78125 -0.28125q-0.421875 -0.09375 -0.859375 -0.09375q-0.828125 0 -1.53125 0.484375q-0.703125 0.46875 -1.125 1.265625q-0.421875 0.796875 -0.421875 1.75l0 6.453125l-1.921875 0z" fill-rule="nonzero"/></g><g filter="url(#shadowFilter-p.2)"><use xlink:href="#p.2" transform="matrix(1.0 0.0 0.0 1.0 0.0 2.0)"/></g><defs><filter id="shadowFilter-p.2" filterUnits="userSpaceOnUse"><feGaussianBlur in="SourceAlpha" stdDeviation="2.0" result="blur"/><feComponentTransfer in="blur" color-interpolation-filters="sRGB"><feFuncR type="linear" slope="0" intercept="0.0"/><feFuncG type="linear" slope="0" intercept="0.0"/><feFuncB type="linear" slope="0" intercept="0.0"/><feFuncA type="linear" slope="0.5" intercept="0"/></feComponentTransfer></filter></defs><g id="p.2"><path fill="#212121" d="m219.94226 80.6273l188.09448 0.22047424l0 124.40945l-188.09448 -0.22047424z" fill-rule="evenodd"/><path stroke="#ffffff" stroke-width="4.0" stroke-linejoin="round" stroke-linecap="butt" d="m219.94226 80.6273l188.09448 0.22047424l0 124.40945l-188.09448 -0.22047424z" fill-rule="evenodd"/><path fill="#ffffff" d="m233.31725 98.98892l0 -5.0l1.734375 0.002029419l0 5.0l-1.734375 -0.002029419zm-3.25 -0.0038070679l0 -5.0000076l1.75 0.0020523071l0 5.0000076l-1.75 -0.0020523071zm12.085617 11.5923q-1.703125 -0.0019989014 -3.03125 -0.8004303q-1.328125 -0.8140564 -2.078125 -2.2055664q-0.734375 -1.3914871 -0.734375 -3.1414871q0 -1.765625 0.734375 -3.1397629q0.75 -1.3897476 2.078125 -2.1850662q1.328125 -0.8109436 3.03125 -0.80895233q1.953125 0.0022888184 3.203125 0.9100113q1.25 0.89208984 1.78125 2.2989578l-1.75 0.7167053q-0.421875 -1.0629959 -1.28125 -1.610878q-0.84375 -0.5634918 -2.046875 -0.56490326q-1.015625 -0.0011901855 -1.890625 0.5446625q-0.875 0.54584503 -1.421875 1.5295792q-0.53125 0.983757 -0.53125 2.311882q0 1.3125 0.53125 2.3131256q0.546875 1.0006409 1.421875 1.5485382q0.875 0.54790497 1.890625 0.54909515q1.21875 0.0014266968 2.09375 -0.56004333q0.890625 -0.5770874 1.328125 -1.6234512l1.71875 0.7363968q-0.5625 1.3274612 -1.828125 2.2634811q-1.265625 0.9203949 -3.21875 0.9181061zm12.10141 0.014183044q-1.75 -0.0020523071 -3.09375 -0.8161316q-1.328125 -0.8140564 -2.09375 -2.2055817q-0.75 -1.4071274 -0.75 -3.1258774q0 -1.71875 0.75 -3.1084976q0.765625 -1.3897324 2.09375 -2.200676q1.34375 -0.8265457 3.09375 -0.8244934q1.734375 0.002029419 3.0625 0.8317108q1.34375 0.8297043 2.109375 2.236847q0.765625 1.3915253 0.765625 3.0790253q0 1.7187576 -0.765625 3.1241074q-0.765625 1.3897324 -2.109375 2.200653q-1.328125 0.8109436 -3.0625 0.8089142zm0 -1.734375q1.03125 0.0012054443 1.953125 -0.5133362q0.921875 -0.53017426 1.484375 -1.5138931q0.5625 -0.98371124 0.5625 -2.3743362q0 -1.375 -0.5625 -2.3600388q-0.5625 -0.9850311 -1.484375 -1.5017395q-0.921875 -0.5323334 -1.953125 -0.5335388q-1.046875 -0.0012283325 -1.984375 0.52892303q-0.921875 0.5145416 -1.484375 1.4982605q-0.5625 0.9837189 -0.5625 2.3587189q0 1.390625 0.5625 2.3756561q0.5625 0.98503876 1.484375 1.5173721q0.9375 0.51672363 1.984375 0.51795197zm8.129639 1.3845291l0 -11.546883l1.828125 0.0021362305l0 1.6875076l0.09375 1.0681152E-4q0.453125 -0.82759094 1.484375 -1.4357605q1.03125 -0.62379456 2.25 -0.6223602q2.140625 0.0025024414 3.203125 1.2381287q1.078125 1.2356415 1.078125 3.2825165l0 7.40625l-1.921875 -0.0022506714l0 -7.109375q0 -1.6875076 -0.8125 -2.3759613q-0.796875 -0.6884308 -2.0625 -0.6899109q-0.953125 -0.001121521 -1.6875 0.52926636q-0.71875 0.53041077 -1.125 1.3736877q-0.40625 0.82764435 -0.40625 1.7651443l0 6.5000076l-1.921875 -0.0022506714zm11.481079 -9.799049l0 -1.734375l2.25 0.002632141l0 1.734375l-2.25 -0.002632141zm2.140625 9.81501l0 -12.796883q0 -1.0625 0.453125 -1.858841q0.46875 -0.8119507 1.3125 -1.2797165q0.859375 -0.46774292 1.984375 -0.46642303q0.4375 5.1116943E-4 0.84375 0.07911682q0.40625 0.06297302 0.796875 0.20405579l0 1.875q-0.453125 -0.18802643 -0.859375 -0.26663208q-0.390625 -0.09420776 -0.734375 -0.09461212q-0.84375 -9.841919E-4 -1.359375 0.5452881q-0.515625 0.53063965 -0.515625 1.4681473l0 12.593758l-1.921875 -0.0022583008zm1.796875 -9.810394l0 -1.7343826l5.5468445 0.0065078735l0 1.734375l-5.5468445 -0.006500244zm5.4218445 9.818855l0 -11.546883l1.921875 0.0022583008l0 11.546883l-1.921875 -0.0022583008zm0.953125 -13.686386q-0.5625 -6.637573E-4 -0.984375 -0.40740967q-0.40625 -0.40672302 -0.40625 -0.969223q0 -0.59375 0.40625 -0.983902q0.421875 -0.4057541 0.984375 -0.40509796q0.578125 6.790161E-4 0.96875 0.40738678q0.40625 0.39110565 0.40625 0.98485565q0 0.5625 -0.40625 0.96826935q-0.390625 0.40579224 -0.96875 0.40512085zm8.863251 18.947899q-1.484375 -0.001739502 -2.53125 -0.48734283q-1.046875 -0.48560333 -1.703125 -1.2363739q-0.640625 -0.7507477 -0.90625 -1.5166855l1.765625 -0.74793243q0.359375 0.95355225 1.21875 1.5951843q0.875 0.65727234 2.15625 0.6587753q1.8125 0.0021209717 2.78125 -1.0592422q0.96875 -1.0457382 0.96875 -2.9207382l0 -1.296875l-0.078125 -9.1552734E-5q-0.546875 0.84310913 -1.578125 1.420021q-1.015625 0.5613098 -2.375 0.5597153q-1.484375 -0.001739502 -2.71875 -0.76880646q-1.234375 -0.7670746 -1.96875 -2.1429367q-0.71875 -1.3758469 -0.71875 -3.1570969q0 -1.796875 0.71875 -3.1554108q0.734375 -1.3741379 1.96875 -2.1383133q1.234375 -0.77980804 2.71875 -0.77806854q1.359375 0.0015945435 2.375 0.5809097q1.03125 0.5793381 1.578125 1.439354l0.078125 9.1552734E-5l0 -1.640625l1.84375 0.0021591187l0 11.093758q0 1.921875 -0.734375 3.1866379q-0.734375 1.2803955 -2.0 1.8882828q-1.25 0.62353516 -2.859375 0.6216507zm0 -6.7656326q1.015625 0.0011978149 1.875 -0.49780273q0.859375 -0.5146179 1.359375 -1.4827805q0.515625 -0.9837723 0.515625 -2.3431473q0 -1.40625 -0.515625 -2.3599777q-0.5 -0.96933746 -1.359375 -1.4703445q-0.859375 -0.5010071 -1.875 -0.50219727q-1.03125 -0.0012130737 -1.890625 0.51340485q-0.859375 0.49899292 -1.375 1.4671402q-0.515625 0.9525223 -0.515625 2.3431473q0 1.375 0.515625 2.3443604q0.515625 0.9693527 1.375 1.4859848q0.859375 0.5010071 1.890625 0.5022125zm11.371063 -9.689796l0 -5.0000076l1.734375 0.0020370483l0 5.0l-1.734375 -0.002029419zm-3.25 -0.0038146973l0 -5.0l1.75 0.0020523071l0 5.0l-1.75 -0.0020523071zm8.7968445 2.43219q-0.609375 -7.171631E-4 -1.03125 -0.40745544q-0.421875 -0.4223709 -0.421875 -1.0317459q0 -0.625 0.421875 -1.0307617q0.421875 -0.4213791 1.03125 -0.42066193q0.609375 7.095337E-4 1.03125 0.42308044q0.421875 0.4067459 0.421875 1.0317459q0 0.609375 -0.421875 1.0307541q-0.421875 0.40576172 -1.03125 0.40504456zm0 8.937508q-0.609375 -7.171631E-4 -1.03125 -0.42308807q-0.421875 -0.4223709 -0.421875 -1.0317459q0 -0.59375 0.421875 -0.9995041q0.421875 -0.4213791 1.03125 -0.42066193q0.609375 7.095337E-4 1.03125 0.42308044q0.421875 0.4067459 0.421875 1.0004959q0 0.609375 -0.421875 1.0307541q-0.421875 0.4213791 -1.03125 0.42066956zm13.806244 2.688057q-1.140625 -0.001335144 -1.984375 -0.47107697q-0.828125 -0.46971893 -1.28125 -1.298378q-0.4375 -0.82863617 -0.4375 -1.9380112l0 -3.953125q0 -0.6562576 -0.21875 -1.0783844q-0.203125 -0.4221115 -0.59375 -0.6413193q-0.390625 -0.21920776 -0.859375 -0.21976471l0 -1.578125q0.46875 5.493164E-4 0.859375 -0.21774292q0.390625 -0.21829224 0.59375 -0.6399231q0.21875 -0.43724823 0.21875 -1.0622482l0 -3.96875q0 -1.109375 0.4375 -1.9369888q0.453125 -0.8275986 1.28125 -1.2797546q0.84375 -0.46775818 1.984375 -0.46642303l0.484375 5.722046E-4l0 1.578125l-0.46875 -5.493164E-4q-0.84375 -9.918213E-4 -1.40625 0.57647705q-0.546875 0.57748413 -0.546875 1.5931091l0 3.96875q0 1.09375 -0.390625 1.7182922q-0.375 0.6089401 -1.140625 0.88928986l0 0.09375q0.765625 0.26652527 1.140625 0.8763428q0.390625 0.60983276 0.390625 1.7192078l0 3.96875q0 1.015625 0.546875 1.5943909q0.5625 0.57878876 1.40625 0.57977295l0.46875 5.493164E-4l0 1.5937576l-0.484375 -5.722046E-4z" fill-rule="nonzero"/><path fill="#ffffff" d="m243.82973 126.20126l0 -5.0000076l1.734375 0.0020370483l0 5.0l-1.734375 -0.002029419zm-3.25 -0.0038146973l0 -5.0l1.75 0.0020523071l0 5.0l-1.75 -0.0020523071zm6.6874847 1.414093l0 -1.734375l2.1562347 0.0025253296l0 1.734375l-2.1562347 -0.0025253296zm5.2499847 10.006165q-1.453125 -0.0017089844 -2.34375 -0.8777466q-0.875 -0.8760376 -0.875 -2.3447876l0 -11.781258l1.9375 0.0022735596l0 11.296883q0 0.984375 0.390625 1.4535828q0.390625 0.45358276 1.1875 0.45451355q0.359375 4.272461E-4 0.671875 -0.09295654q0.328125 -0.10899353 0.625 -0.29614258l0 1.890625q-0.375 0.124557495 -0.765625 0.20222473q-0.375 0.093307495 -0.828125 0.0927887zm-1.40625 -10.001663l0 -1.734375l2.953125 0.0034637451l0 1.734375l-2.953125 -0.0034637451zm10.008316 10.183609q-1.75 -0.0020446777 -3.09375 -0.81611633q-1.328125 -0.8140564 -2.09375 -2.2055817q-0.75 -1.407135 -0.75 -3.125885q0 -1.71875 0.75 -3.10849q0.765625 -1.3897324 2.09375 -2.200676q1.34375 -0.82655334 3.09375 -0.82450104q1.734375 0.002029419 3.0625 0.8317108q1.34375 0.8297043 2.109375 2.236847q0.765625 1.3915253 0.765625 3.0790253q0 1.71875 -0.765625 3.124115q-0.765625 1.3897247 -2.109375 2.200653q-1.328125 0.8109436 -3.0625 0.8088989zm0 -1.734375q1.03125 0.0012207031 1.953125 -0.5133362q0.921875 -0.5301666 1.484375 -1.5138855q0.5625 -0.9837189 0.5625 -2.3743439q0 -1.375 -0.5625 -2.3600311q-0.5625 -0.9850311 -1.484375 -1.5017395q-0.921875 -0.5323334 -1.953125 -0.5335388q-1.046875 -0.0012283325 -1.984375 0.52892303q-0.921875 0.51454926 -1.484375 1.4982681q-0.5625 0.9837036 -0.5625 2.3587036q0 1.3906403 0.5625 2.3756714q0.5625 0.9850311 1.484375 1.5173645q0.9375 0.51672363 1.984375 0.51794434zm8.129639 6.2751617l0 -16.437508l1.828125 0.0021438599l0 1.71875l0.09375 1.0681152E-4q0.3125 -0.5465088 0.890625 -1.0145798q0.578125 -0.48369598 1.34375 -0.77967834q0.78125 -0.29595947 1.703125 -0.2948761q1.59375 0.0018692017 2.828125 0.8001938q1.25 0.79833984 1.96875 2.189804q0.734375 1.3758698 0.734375 3.1571198q0 1.796875 -0.734375 3.1866302q-0.71875 1.3741608 -1.96875 2.169571q-1.234375 0.7798004 -2.828125 0.77793884q-1.375 -0.0016174316 -2.421875 -0.62783813q-1.03125 -0.64183044 -1.515625 -1.4392853l-0.09375 -1.0681152E-4l0.09375 1.5938721l0 5.0l-1.921875 -0.0022583008zm5.65625 -6.2590027q1.0 0.0011749268 1.875 -0.52905273q0.875 -0.5458374 1.40625 -1.529602q0.53125 -0.9993744 0.53125 -2.3431244q0 -1.359375 -0.53125 -2.3443756q-0.53125 -0.9850006 -1.40625 -1.517273q-0.875 -0.53227234 -1.875 -0.53344727q-0.984375 -0.0011520386 -1.859375 0.529068q-0.875 0.53022766 -1.421875 1.5139618q-0.546875 0.98373413 -0.546875 2.3431091q0 1.359375 0.546875 2.3443909q0.546875 0.98501587 1.421875 1.5329132q0.875 0.5322876 1.859375 0.533432zm7.9374695 1.3843079l0 -11.546883l1.921875 0.0022583008l0 11.546883l-1.921875 -0.0022583008zm0.953125 -13.686394q-0.5625 -6.5612793E-4 -0.984375 -0.40740204q-0.40625 -0.40672302 -0.40625 -0.969223q0 -0.59375 0.40625 -0.983902q0.421875 -0.4057541 0.984375 -0.40509796q0.578125 6.790161E-4 0.96875 0.40738678q0.40625 0.39110565 0.40625 0.98485565q0 0.5625 -0.40625 0.96826935q-0.390625 0.40579224 -0.96875 0.40511322zm9.016388 14.057457q-1.703125 -0.0019989014 -3.03125 -0.8004303q-1.328125 -0.8140564 -2.078125 -2.2055664q-0.734375 -1.3914795 -0.734375 -3.1414795q0 -1.765625 0.734375 -3.1397705q0.75 -1.3897476 2.078125 -2.1850662q1.328125 -0.8109436 3.03125 -0.8089447q1.953125 0.0022888184 3.203125 0.91000366q1.25 0.89208984 1.78125 2.2989578l-1.75 0.7167053q-0.421875 -1.0629883 -1.28125 -1.610878q-0.84375 -0.5634918 -2.046875 -0.56489563q-1.015625 -0.0011901855 -1.890625 0.54465485q-0.875 0.54585266 -1.421875 1.5295868q-0.53125 0.9837494 -0.53125 2.3118744q0 1.3125 0.53125 2.3131256q0.546875 1.0006409 1.421875 1.5485382q0.875 0.5479126 1.890625 0.5491028q1.21875 0.0014190674 2.09375 -0.56004333q0.890625 -0.5770874 1.328125 -1.6234589l1.71875 0.7364044q-0.5625 1.3274536 -1.828125 2.2634735q-1.265625 0.9203949 -3.21875 0.9181061zm9.9687195 -11.566452l0 -5.0l1.734375 0.002029419l0 5.0000076l-1.734375 -0.0020370483zm-3.25 -0.0038070679l0 -5.0l1.75 0.0020523071l0 5.0l-1.75 -0.0020523071zm8.7968445 2.4321823q-0.609375 -7.019043E-4 -1.03125 -0.40745544q-0.421875 -0.42236328 -0.421875 -1.0317459q0 -0.625 0.421875 -1.0307541q0.421875 -0.4213791 1.03125 -0.42066193q0.609375 7.095337E-4 1.03125 0.42308044q0.421875 0.4067459 0.421875 1.0317459q0 0.609375 -0.421875 1.0307617q-0.421875 0.40574646 -1.03125 0.4050293zm0 8.937515q-0.609375 -7.171631E-4 -1.03125 -0.42308044q-0.421875 -0.42237854 -0.421875 -1.0317535q0 -0.59375 0.421875 -0.99949646q0.421875 -0.42138672 1.03125 -0.42066956q0.609375 7.171631E-4 1.03125 0.42308044q0.421875 0.40673828 0.421875 1.0004883q0 0.609375 -0.421875 1.0307617q-0.421875 0.42138672 -1.03125 0.42066956z" fill-rule="nonzero"/><path fill="#ea9999" d="m320.63394 126.29128l0 -5.0l1.734375 0.002029419l0 5.0000076l-1.734375 -0.0020370483zm-3.25 -0.0038070679l0 -5.0l1.75 0.0020446777l0 5.0000076l-1.75 -0.0020523071zm7.436859 11.368103q-0.609375 -7.171631E-4 -1.03125 -0.42308044q-0.421875 -0.42237854 -0.421875 -1.0317535q0 -0.59375 0.421875 -0.9995117q0.421875 -0.42137146 1.03125 -0.4206543q0.609375 7.019043E-4 1.03125 0.42308044q0.42184448 0.40673828 0.42184448 1.0004883q0 0.609375 -0.42184448 1.0307617q-0.421875 0.42138672 -1.03125 0.42066956zm5.3468323 0.0062713623q-0.609375 -7.171631E-4 -1.03125 -0.4230957q-0.421875 -0.42236328 -0.421875 -1.0317383q0 -0.59375 0.421875 -0.9995117q0.421875 -0.42137146 1.03125 -0.42066956q0.609375 7.171631E-4 1.03125 0.4230957q0.421875 0.40673828 0.421875 1.0004883q0 0.609375 -0.421875 1.0307617q-0.421875 0.42137146 -1.03125 0.42066956zm5.346863 0.0062561035q-0.609375 -7.171631E-4 -1.03125 -0.42308044q-0.421875 -0.42236328 -0.421875 -1.0317383q0 -0.59375 0.421875 -0.9995117q0.421875 -0.42138672 1.03125 -0.42066956q0.609375 7.171631E-4 1.03125 0.42308044q0.421875 0.40675354 0.421875 1.0005035q0 0.609375 -0.421875 1.0307465q-0.421875 0.42138672 -1.03125 0.42066956zm5.6900024 -11.352707l0 -5.0000076l1.734375 0.0020370483l0 5.0l-1.734375 -0.002029419zm-3.25 -0.0038146973l0 -5.0l1.75 0.0020523071l0 5.0l-1.75 -0.0020523071z" fill-rule="nonzero"/><path fill="#ffffff" d="m346.14197 140.02432l-0.9375 -0.61047363l1.234375 -1.8735657q-0.359375 -0.06291199 -0.71875 -0.40708923q-0.34375 -0.34414673 -0.34375 -0.9066467q0 -0.59375 0.40625 -0.999527q0.421875 -0.42138672 1.03125 -0.42066956q0.328125 3.8146973E-4 0.578125 0.110061646q0.265625 0.109680176 0.453125 0.3130188q0.203125 0.18774414 0.3125 0.4534912q0.109375 0.25013733 0.109375 0.5470123q0 0.265625 -0.09375 0.5311432q-0.078125 0.26553345 -0.21875 0.5153656q-0.140625 0.24983215 -0.3125 0.4840088l-1.5 2.2638702z" fill-rule="nonzero"/><path fill="#ffffff" d="m243.82973 153.40128l0 -5.0l1.734375 0.002029419l0 5.0l-1.734375 -0.002029419zm-3.25 -0.0038146973l0 -5.0l1.75 0.0020446777l0 5.0000153l-1.75 -0.0020599365zm15.710617 16.127808l0 -5.0000153l0.09375 -1.5936279l-0.09375 -1.2207031E-4q-0.31251526 0.5308838 -0.89064026 1.0145874q-0.578125 0.4680786 -1.359375 0.7484131q-0.765625 0.29597473 -1.6875 0.29489136q-1.578125 -0.0018463135 -2.828125 -0.78456116q-1.25 -0.79833984 -1.9843597 -2.1742096q-0.71875 -1.3914642 -0.71875 -3.1883392q0 -1.78125 0.71875 -3.1554108q0.73435974 -1.3897705 1.9843597 -2.1851807q1.25 -0.79541016 2.828125 -0.79356384q0.921875 0.001083374 1.6875 0.29885864q0.78125 0.29779053 1.359375 0.7828522q0.578125 0.4694214 0.89064026 1.0166626l0.09375 1.0681152E-4l0 -1.71875l1.828125 0.0021514893l0 16.4375l-1.921875 -0.002243042zm-3.7343903 -6.2700043q0.984375 0.0011444092 1.859375 -0.52908325q0.875 -0.5458374 1.421875 -1.5295868q0.54689026 -0.98373413 0.54689026 -2.3431091q0 -1.359375 -0.54689026 -2.3443909q-0.546875 -0.98501587 -1.421875 -1.5172882q-0.875 -0.53227234 -1.859375 -0.533432q-1.0 -0.0011749268 -1.875 0.52905273q-0.875 0.53022766 -1.421875 1.5139618q-0.53125 0.9837494 -0.53125 2.3431244q0 1.34375 0.53125 2.3443756q0.546875 0.98501587 1.421875 1.5329132q0.875 0.5322876 1.875 0.5334625zm13.796829 1.750534q-1.75 -0.0020446777 -3.09375 -0.81611633q-1.328125 -0.8140564 -2.09375 -2.2055817q-0.75 -1.407135 -0.75 -3.125885q0 -1.71875 0.75 -3.10849q0.765625 -1.38974 2.09375 -2.2006836q1.34375 -0.82655334 3.09375 -0.8244934q1.734375 0.002029419 3.0625 0.8317108q1.34375 0.82969666 2.109375 2.236847q0.765625 1.3915253 0.765625 3.0790253q0 1.71875 -0.765625 3.124115q-0.765625 1.3897247 -2.109375 2.200653q-1.328125 0.8109436 -3.0625 0.8088989zm0 -1.734375q1.03125 0.0012207031 1.953125 -0.5133362q0.921875 -0.5301666 1.484375 -1.5138855q0.5625 -0.9837189 0.5625 -2.3743439q0 -1.375 -0.5625 -2.3600311q-0.5625 -0.9850311 -1.484375 -1.5017395q-0.921875 -0.5323334 -1.953125 -0.5335388q-1.046875 -0.0012207031 -1.984375 0.52893066q-0.921875 0.5145416 -1.484375 1.4982605q-0.5625 0.9837036 -0.5625 2.3587036q0 1.3906403 0.5625 2.3756714q0.5625 0.9850311 1.484375 1.5173645q0.9375 0.51672363 1.984375 0.51794434zm12.160919 1.748642q-1.296875 -0.0015258789 -2.28125 -0.40893555q-0.984375 -0.4230194 -1.625 -1.1425323q-0.640625 -0.7194977 -0.96875 -1.5480042l1.71875 -0.77923584q0.453125 1.047409 1.3125 1.6109161q0.875 0.56352234 1.984375 0.56481934q1.0625 0.0012512207 1.765625 -0.4197998q0.71875 -0.43666077 0.71875 -1.2647858q0 -0.53125 -0.296875 -0.87535095q-0.296875 -0.35972595 -0.859375 -0.5947571q-0.5625 -0.25065613 -1.375 -0.47035217l-1.40625 -0.36102295q-0.8125 -0.2197113 -1.546875 -0.6268158q-0.71875 -0.4071045 -1.171875 -1.0482483q-0.4375 -0.6567688 -0.4375 -1.5942688q0 -1.03125 0.609375 -1.7805328q0.625 -0.7492676 1.609375 -1.1387482q1.0 -0.40507507 2.140625 -0.4037323q1.0 0.001159668 1.859375 0.29904175q0.875 0.2822876 1.5312195 0.84555054q0.65625 0.5476532 1.0 1.3605499l-1.6718445 0.7636719q-0.4375 -0.8598938 -1.171875 -1.1888733q-0.71875 -0.3446045 -1.59375 -0.34562683q-0.953125 -0.0011138916 -1.65625 0.41993713q-0.703125 0.40542603 -0.703125 1.139801q0 0.71875 0.578125 1.0787964q0.578125 0.36006165 1.421875 0.59542847l1.671875 0.42382812q1.703125 0.4394989 2.5624695 1.299881q0.859375 0.8447571 0.859375 2.063507q0 1.09375 -0.609375 1.8899078q-0.609375 0.7805481 -1.6562195 1.2168121q-1.046875 0.4206543 -2.3125 0.4191742zm9.608551 -11.566879l0 -5.0l1.734375 0.002029419l0 5.0l-1.734375 -0.002029419zm-3.25 -0.0037994385l0 -5.0000153l1.75 0.0020599365l0 5.0l-1.75 -0.0020446777zm8.7968445 2.4321747q-0.609375 -7.019043E-4 -1.03125 -0.40745544q-0.421875 -0.42236328 -0.421875 -1.0317383q0 -0.625 0.421875 -1.0307617q0.421875 -0.42138672 1.03125 -0.42066956q0.609375 7.171631E-4 1.03125 0.42308044q0.421875 0.40675354 0.421875 1.0317535q0 0.609375 -0.421875 1.0307617q-0.421875 0.40574646 -1.03125 0.4050293zm0 8.937515q-0.609375 -7.171631E-4 -1.03125 -0.42308044q-0.421875 -0.42237854 -0.421875 -1.0317535q0 -0.59375 0.421875 -0.9995117q0.421875 -0.42137146 1.03125 -0.4206543q0.609375 7.019043E-4 1.03125 0.42308044q0.421875 0.40673828 0.421875 1.0004883q0 0.609375 -0.421875 1.0307617q-0.421875 0.42138672 -1.03125 0.42066956zm13.806213 2.6880493q-1.140625 -0.0013275146 -1.984375 -0.47106934q-0.828125 -0.46972656 -1.28125 -1.2983704q-0.4375 -0.8286438 -0.4375 -1.9380188l0 -3.953125q0 -0.65625 -0.21871948 -1.0783844q-0.203125 -0.42211914 -0.59375 -0.6413269q-0.390625 -0.21920776 -0.859375 -0.21975708l0 -1.578125q0.46875 5.493164E-4 0.859375 -0.21774292q0.390625 -0.21829224 0.59375 -0.6399231q0.21871948 -0.43725586 0.21871948 -1.0622559l0 -3.96875q0 -1.109375 0.4375 -1.9369812q0.453125 -0.82759094 1.28125 -1.2797546q0.84375 -0.46775818 1.984375 -0.4664154l0.484375 5.645752E-4l0 1.578125l-0.46875 -5.493164E-4q-0.84375 -9.918213E-4 -1.40625 0.57647705q-0.546875 0.57748413 -0.546875 1.5931091l0 3.96875q0 1.09375 -0.390625 1.7182922q-0.375 0.6089325 -1.140625 0.8892975l0 0.09375q0.765625 0.26651 1.140625 0.8763275q0.390625 0.60983276 0.390625 1.7192078l0 3.96875q0 1.015625 0.546875 1.5944061q0.5625 0.5787811 1.40625 0.57977295l0.46875 5.493164E-4l0 1.59375l-0.484375 -5.79834E-4z" fill-rule="nonzero"/><path fill="#ea9999" d="m316.57452 164.84592q-0.609375 -7.171631E-4 -1.03125 -0.42308044q-0.421875 -0.42236328 -0.421875 -1.0317383q0 -0.59375 0.421875 -0.9995117q0.421875 -0.42138672 1.03125 -0.42066956q0.609375 7.171631E-4 1.03125 0.42308044q0.421875 0.40675354 0.421875 1.0005035q0 0.609375 -0.421875 1.0307617q-0.421875 0.42137146 -1.03125 0.4206543zm5.346863 0.0062713623q-0.609375 -7.171631E-4 -1.03125 -0.42308044q-0.421875 -0.42237854 -0.421875 -1.0317535q0 -0.59375 0.421875 -0.99949646q0.421875 -0.42138672 1.03125 -0.42066956q0.609375 7.171631E-4 1.03125 0.42308044q0.421875 0.40675354 0.421875 1.0005035q0 0.609375 -0.421875 1.0307465q-0.421875 0.42138672 -1.03125 0.42066956zm5.3468323 0.0062713623q-0.609375 -7.171631E-4 -1.03125 -0.42308044q-0.42184448 -0.42237854 -0.42184448 -1.0317535q0 -0.59375 0.42184448 -0.9995117q0.421875 -0.42137146 1.03125 -0.4206543q0.609375 7.019043E-4 1.03125 0.42308044q0.421875 0.40673828 0.421875 1.0004883q0 0.609375 -0.421875 1.0307617q-0.421875 0.42138672 -1.03125 0.42066956z" fill-rule="nonzero"/><path fill="#ffffff" d="m335.87134 167.54042l0 -1.59375l0.484375 5.645752E-4q0.859375 0.0010070801 1.40625 -0.57647705q0.5625 -0.5774689 0.5625 -1.5930939l0 -3.96875q0 -1.109375 0.375 -1.7183075q0.375 -0.60894775 1.140625 -0.8736725l0 -0.09375q-0.765625 -0.28215027 -1.140625 -0.8919678q-0.375 -0.62542725 -0.375 -1.7191772l0 -3.9687653q0 -1.015625 -0.5625 -1.5944061q-0.546875 -0.57876587 -1.40625 -0.57977295l-0.484375 -5.645752E-4l0 -1.578125l0.5 5.79834E-4q1.15625 0.0013580322 1.984375 0.4710846q0.828125 0.4540863 1.265625 1.2827301q0.453125 0.82865906 0.453125 1.938034l0 3.96875q0 0.625 0.21875 1.0627594q0.234375 0.42214966 0.609375 0.64134216q0.375 0.2191925 0.84375 0.21974182l0 1.578125q-0.46875 -5.493164E-4 -0.84375 0.21775818q-0.375 0.2183075 -0.609375 0.63990784q-0.21875 0.4216156 -0.21875 1.0778656l0 3.953125q0 1.1093903 -0.453125 1.9369812q-0.4375 0.8276062 -1.265625 1.2953949q-0.828125 0.46777344 -1.984375 0.4664154l-0.5 -5.79834E-4z" fill-rule="nonzero"/><path fill="#ffffff" d="m229.61412 194.61589l0 -1.59375l0.484375 5.645752E-4q0.859375 0.0010070801 1.40625 -0.57647705q0.5625 -0.5774689 0.5625 -1.5930939l0 -3.96875q0 -1.109375 0.375 -1.7183228q0.375 -0.6089325 1.140625 -0.8736572l0 -0.09375q-0.765625 -0.28215027 -1.140625 -0.8919678q-0.375 -0.62542725 -0.375 -1.7191925l0 -3.96875q0 -1.015625 -0.5625 -1.5944061q-0.546875 -0.57876587 -1.40625 -0.57977295l-0.484375 -5.645752E-4l0 -1.578125l0.5 5.79834E-4q1.15625 0.0013580322 1.984375 0.4710846q0.828125 0.4540863 1.265625 1.2827301q0.453125 0.82865906 0.453125 1.938034l0 3.96875q0 0.625 0.21875 1.0627594q0.234375 0.42214966 0.609375 0.64134216q0.375 0.21917725 0.84375 0.21972656l0 1.578125q-0.46875 -5.493164E-4 -0.84375 0.21777344q-0.375 0.2183075 -0.609375 0.63990784q-0.21875 0.4216156 -0.21875 1.0778656l0 3.953125q0 1.109375 -0.453125 1.9369812q-0.4375 0.8276062 -1.265625 1.2953796q-0.828125 0.4677887 -1.984375 0.46643066l-0.5 -5.79834E-4z" fill-rule="nonzero"/></g><path fill="#000000" fill-opacity="0.0" d="m197.04462 124.34121l-169.07086 0" fill-rule="evenodd"/><path stroke="#000000" stroke-width="3.0" stroke-linejoin="round" stroke-linecap="butt" d="m179.04462 124.34121l-151.07086 0" fill-rule="evenodd"/><path fill="#000000" stroke="#000000" stroke-width="3.0" stroke-linecap="butt" d="m179.04462 129.2964l13.614288 -4.9551926l-13.614288 -4.9552z" fill-rule="evenodd"/><path fill="#000000" fill-opacity="0.0" d="m27.800526 58.209972l159.65355 0l0 51.748035l-159.65355 0z" fill-rule="evenodd"/><path fill="#ffffff" d="m63.281384 72.883995l88.69183 0l0 22.399994l-88.69183 0l0 -22.399994z" fill-rule="nonzero"/><path fill="#000000" fill-opacity="0.0" d="m63.281384 72.78205l77.88986 0l0 23.357628l-77.88986 0l0 -23.357628z" fill-rule="nonzero"/><path fill="#000000" d="m64.75013 90.80399l0 -13.359375l4.515625 0q1.125 0 2.0625 0.515625q0.953125 0.5 1.515625 1.390625q0.5625 0.875 0.5625 2.046875q0 0.71875 -0.265625 1.421875q-0.25 0.6875 -0.8125 1.265625q-0.546875 0.578125 -1.390625 0.921875q-0.84375 0.34375 -2.015625 0.34375l-3.328125 0l0 -1.46875l3.578125 0q0.6875 0 1.28125 -0.3125q0.609375 -0.328125 0.984375 -0.875q0.375 -0.5625 0.375 -1.296875q0 -0.59375 -0.3125 -1.15625q-0.3125 -0.5625 -0.875 -0.921875q-0.546875 -0.359375 -1.34375 -0.359375l-2.9375 0l0 11.84375l-1.59375 0zm3.234375 -6.125l1.734375 -0.09375l4.21875 6.140625l0 0.078125l-1.875 0l-4.078125 -6.125zm11.713348 6.421875q-1.375 0 -2.453125 -0.640625q-1.078125 -0.65625 -1.6875 -1.796875q-0.59375 -1.140625 -0.59375 -2.59375q0 -1.359375 0.5625 -2.515625q0.578125 -1.15625 1.609375 -1.859375q1.03125 -0.703125 2.4375 -0.703125q1.40625 0 2.421875 0.625q1.03125 0.625 1.578125 1.734375q0.546875 1.09375 0.546875 2.515625q0 0.125 -0.015625 0.265625q0 0.125 -0.015625 0.21875l-8.203125 0l0 -1.3125l6.5625 0q-0.03125 -0.390625 -0.1875 -0.84375q-0.15625 -0.46875 -0.5 -0.859375q-0.34375 -0.40625 -0.875 -0.65625q-0.53125 -0.25 -1.3125 -0.25q-0.9375 0 -1.625 0.484375q-0.671875 0.46875 -1.046875 1.296875q-0.359375 0.8125 -0.359375 1.859375q0 1.203125 0.46875 2.015625q0.46875 0.796875 1.203125 1.1875q0.734375 0.390625 1.546875 0.390625q1.046875 0 1.71875 -0.484375q0.6875 -0.5 1.09375 -1.234375l1.34375 0.65625q-0.5625 1.078125 -1.609375 1.796875q-1.046875 0.703125 -2.609375 0.703125zm13.528656 3.734375l0 -4.125l0.078125 -1.3125l-0.078125 0q-0.265625 0.4375 -0.75 0.828125q-0.46875 0.390625 -1.109375 0.625q-0.625 0.25 -1.390625 0.25q-1.28125 0 -2.328125 -0.640625q-1.03125 -0.65625 -1.625 -1.796875q-0.59375 -1.140625 -0.59375 -2.609375q0 -1.484375 0.59375 -2.609375q0.59375 -1.140625 1.625 -1.796875q1.046875 -0.65625 2.328125 -0.65625q0.765625 0 1.390625 0.25q0.640625 0.234375 1.109375 0.625q0.484375 0.390625 0.75 0.84375l0.078125 0l0 -1.421875l1.5 0l0 13.546875l-1.578125 0zm-3.078125 -5.171875q0.8125 0 1.53125 -0.4375q0.71875 -0.4375 1.171875 -1.25q0.453125 -0.8125 0.453125 -1.921875q0 -1.125 -0.453125 -1.9375q-0.453125 -0.8125 -1.171875 -1.25q-0.71875 -0.4375 -1.53125 -0.4375q-0.828125 0 -1.546875 0.4375q-0.71875 0.4375 -1.171875 1.25q-0.4375 0.8125 -0.4375 1.9375q0 1.09375 0.4375 1.921875q0.453125 0.8125 1.171875 1.25q0.71875 0.4375 1.546875 0.4375zm10.428131 1.4375q-1.75 0 -2.640625 -1.015625q-0.890625 -1.03125 -0.890625 -2.8125l0 -5.984375l1.59375 0l0 5.75q0 1.421875 0.640625 2.03125q0.65625 0.59375 1.625 0.59375q0.84375 0 1.453125 -0.4375q0.625 -0.4375 0.953125 -1.125q0.34375 -0.6875 0.34375 -1.4375l0 -5.375l1.578125 0l0 9.515625l-1.5 0l0 -1.375l-0.078125 0q-0.25 0.4375 -0.71875 0.828125q-0.46875 0.375 -1.078125 0.609375q-0.609375 0.234375 -1.28125 0.234375zm11.210098 0q-1.375 0 -2.453125 -0.640625q-1.078125 -0.65625 -1.6875 -1.796875q-0.59375 -1.140625 -0.59375 -2.59375q0 -1.359375 0.5625 -2.515625q0.578125 -1.15625 1.609375 -1.859375q1.03125 -0.703125 2.4375 -0.703125q1.40625 0 2.421875 0.625q1.03125 0.625 1.578125 1.734375q0.546875 1.09375 0.546875 2.515625q0 0.125 -0.015625 0.265625q0 0.125 -0.015625 0.21875l-8.203125 0l0 -1.3125l6.5625 0q-0.03125 -0.390625 -0.1875 -0.84375q-0.15625 -0.46875 -0.5 -0.859375q-0.34375 -0.40625 -0.875 -0.65625q-0.53125 -0.25 -1.3125 -0.25q-0.9375 0 -1.625 0.484375q-0.671875 0.46875 -1.046875 1.296875q-0.359375 0.8125 -0.359375 1.859375q0 1.203125 0.46875 2.015625q0.46875 0.796875 1.203125 1.1875q0.734375 0.390625 1.546875 0.390625q1.046875 0 1.71875 -0.484375q0.6875 -0.5 1.09375 -1.234375l1.34375 0.65625q-0.5625 1.078125 -1.609375 1.796875q-1.046875 0.703125 -2.609375 0.703125zm9.559906 0q-1.0625 0 -1.875 -0.34375q-0.8125 -0.34375 -1.34375 -0.921875q-0.53125 -0.59375 -0.796875 -1.28125l1.421875 -0.640625q0.359375 0.859375 1.0625 1.328125q0.71875 0.46875 1.640625 0.46875q0.875 0 1.453125 -0.359375q0.59375 -0.359375 0.59375 -1.046875q0 -0.421875 -0.25 -0.703125q-0.234375 -0.296875 -0.703125 -0.5q-0.46875 -0.21875 -1.140625 -0.375l-1.15625 -0.3125q-0.671875 -0.1875 -1.265625 -0.515625q-0.59375 -0.34375 -0.96875 -0.875q-0.359375 -0.53125 -0.359375 -1.296875q0 -0.84375 0.5 -1.453125q0.515625 -0.625 1.328125 -0.953125q0.828125 -0.328125 1.765625 -0.328125q0.8125 0 1.53125 0.234375q0.71875 0.234375 1.25 0.6875q0.546875 0.453125 0.828125 1.125l-1.375 0.640625q-0.359375 -0.703125 -0.953125 -0.984375q-0.59375 -0.28125 -1.328125 -0.28125q-0.78125 0 -1.359375 0.34375q-0.578125 0.34375 -0.578125 0.9375q0 0.59375 0.46875 0.90625q0.484375 0.296875 1.171875 0.46875l1.375 0.359375q1.40625 0.359375 2.109375 1.0625q0.71875 0.6875 0.71875 1.703125q0 0.890625 -0.515625 1.546875q-0.5 0.65625 -1.359375 1.015625q-0.859375 0.34375 -1.890625 0.34375zm4.771469 -8.375l0 -1.4375l1.765625 0l0 1.4375l-1.765625 0zm4.3281326 8.234375q-1.203125 0 -1.9375 -0.71875q-0.7187576 -0.71875 -0.7187576 -1.9375l0 -9.703125l1.5937576 0l0 9.3125q0 0.796875 0.3125 1.1875q0.328125 0.375 0.984375 0.375q0.296875 0 0.5625 -0.078125q0.265625 -0.09375 0.5 -0.234375l0 1.546875q-0.296875 0.109375 -0.609375 0.171875q-0.3125 0.078125 -0.6875 0.078125zm-1.15625 -8.234375l0 -1.4375l2.421875 0l0 1.4375l-2.421875 0zm5.3533783 0.84375q-0.5 0 -0.859375 -0.34375q-0.34375 -0.34375 -0.34375 -0.859375q0 -0.5 0.34375 -0.84375q0.359375 -0.34375 0.859375 -0.34375q0.5 0 0.84375 0.34375q0.34375 0.34375 0.34375 0.84375q0 0.515625 -0.34375 0.859375q-0.34375 0.34375 -0.84375 0.34375zm0 7.34375q-0.5 0 -0.859375 -0.34375q-0.34375 -0.34375 -0.34375 -0.84375q0 -0.484375 0.34375 -0.828125q0.359375 -0.34375 0.859375 -0.34375q0.5 0 0.84375 0.34375q0.34375 0.34375 0.34375 0.828125q0 0.5 -0.34375 0.84375q-0.34375 0.34375 -0.84375 0.34375z" fill-rule="nonzero"/><path fill="#010000" fill-opacity="0.0" d="m141.17125 72.78205l10.801971 0l0 23.357628l-10.801971 0l0 -23.357628z" fill-rule="nonzero"/><path fill="#45818e" d="m145.31187 90.80399l0 -12.09375l2.515625 0l0 12.09375l-2.515625 0zm-3.734375 -10.96875l0 -2.390625l9.984375 0l0 2.390625l-9.984375 0z" fill-rule="nonzero"/><path fill="#000000" fill-opacity="0.0" d="m151.97322 72.78205l0 0l0 23.357628l0 0l0 -23.357628z" fill-rule="nonzero"/><path fill="#000000" fill-opacity="0.0" d="m433.45407 26.729658l194.04727 0l0 114.708664l-194.04727 0z" fill-rule="evenodd"/><path fill="#ffffff" d="m487.15787 61.683994l86.63962 0l0 22.399998l-86.63962 0l0 -22.399998z" fill-rule="nonzero"/><path fill="#000000" fill-opacity="0.0" d="m487.15787 61.58205l82.236786 0l0 23.357632l-82.236786 0l0 -23.357632z" fill-rule="nonzero"/><path fill="#000000" d="m488.62662 79.60399l0 -13.359375l4.515625 0q1.125 0 2.0625 0.515625q0.953125 0.5 1.515625 1.390625q0.5625 0.875 0.5625 2.046875q0 0.71875 -0.265625 1.421875q-0.25 0.6875 -0.8125 1.265625q-0.546875 0.578125 -1.390625 0.921875q-0.84375 0.34375 -2.015625 0.34375l-3.328125 0l0 -1.46875l3.578125 0q0.6875 0 1.28125 -0.3125q0.609375 -0.328125 0.984375 -0.875q0.375 -0.5625 0.375 -1.296875q0 -0.59375 -0.3125 -1.15625q-0.3125 -0.5625 -0.875 -0.921875q-0.546875 -0.359375 -1.34375 -0.359375l-2.9375 0l0 11.84375l-1.59375 0zm3.234375 -6.125l1.734375 -0.09375l4.21875 6.140625l0 0.078125l-1.875 0l-4.078125 -6.125zm11.713348 6.421875q-1.375 0 -2.453125 -0.640625q-1.078125 -0.65625 -1.6875 -1.796875q-0.59375 -1.140625 -0.59375 -2.59375q0 -1.359375 0.5625 -2.515625q0.578125 -1.15625 1.609375 -1.859375q1.03125 -0.703125 2.4375 -0.703125q1.40625 0 2.421875 0.625q1.03125 0.625 1.578125 1.734375q0.546875 1.09375 0.546875 2.515625q0 0.125 -0.015625 0.265625q0 0.125 -0.015625 0.21875l-8.203125 0l0 -1.3125l6.5625 0q-0.03125 -0.390625 -0.1875 -0.84375q-0.15625 -0.46875 -0.5 -0.859375q-0.34375 -0.40625 -0.875 -0.65625q-0.53125 -0.25 -1.3125 -0.25q-0.9375 0 -1.625 0.484375q-0.671875 0.46875 -1.046875 1.296875q-0.359375 0.8125 -0.359375 1.859375q0 1.203125 0.46875 2.015625q0.46875 0.796875 1.203125 1.1875q0.734375 0.390625 1.546875 0.390625q1.046875 0 1.71875 -0.484375q0.6875 -0.5 1.09375 -1.234375l1.34375 0.65625q-0.5625 1.078125 -1.609375 1.796875q-1.046875 0.703125 -2.609375 0.703125zm9.5598755 0q-1.0625 0 -1.8749695 -0.34375q-0.8125 -0.34375 -1.34375 -0.921875q-0.53125 -0.59375 -0.796875 -1.28125l1.421875 -0.640625q0.359375 0.859375 1.0625 1.328125q0.7187195 0.46875 1.6405945 0.46875q0.875 0 1.453125 -0.359375q0.59375 -0.359375 0.59375 -1.046875q0 -0.421875 -0.25 -0.703125q-0.234375 -0.296875 -0.703125 -0.5q-0.46875 -0.21875 -1.140625 -0.375l-1.15625 -0.3125q-0.6718445 -0.1875 -1.2655945 -0.515625q-0.59375 -0.34375 -0.96875 -0.875q-0.359375 -0.53125 -0.359375 -1.296875q0 -0.84375 0.5 -1.453125q0.515625 -0.625 1.328125 -0.953125q0.8280945 -0.328125 1.7655945 -0.328125q0.8125 0 1.53125 0.234375q0.71875 0.234375 1.25 0.6875q0.546875 0.453125 0.828125 1.125l-1.375 0.640625q-0.359375 -0.703125 -0.953125 -0.984375q-0.59375 -0.28125 -1.328125 -0.28125q-0.78125 0 -1.3593445 0.34375q-0.578125 0.34375 -0.578125 0.9375q0 0.59375 0.46875 0.90625q0.48434448 0.296875 1.1718445 0.46875l1.375 0.359375q1.40625 0.359375 2.109375 1.0625q0.71875 0.6875 0.71875 1.703125q0 0.890625 -0.515625 1.546875q-0.5 0.65625 -1.359375 1.015625q-0.859375 0.34375 -1.890625 0.34375zm5.4589844 3.734375l0 -13.546875l1.515625 0l0 1.421875l0.078125 0q0.25 -0.453125 0.71875 -0.84375q0.484375 -0.390625 1.109375 -0.625q0.640625 -0.25 1.40625 -0.25q1.3125 0 2.328125 0.65625q1.03125 0.65625 1.625 1.796875q0.609375 1.125 0.609375 2.609375q0 1.46875 -0.609375 2.609375q-0.59375 1.140625 -1.625 1.796875q-1.015625 0.640625 -2.328125 0.640625q-1.140625 0 -2.0 -0.515625q-0.84375 -0.53125 -1.234375 -1.1875l-0.078125 0l0.078125 1.3125l0 4.125l-1.59375 0zm4.671875 -5.171875q0.8125 0 1.53125 -0.4375q0.71875 -0.4375 1.15625 -1.25q0.4375 -0.828125 0.4375 -1.921875q0 -1.125 -0.4375 -1.9375q-0.4375 -0.8125 -1.15625 -1.25q-0.71875 -0.4375 -1.53125 -0.4375q-0.828125 0 -1.546875 0.4375q-0.71875 0.4375 -1.171875 1.25q-0.4375 0.8125 -0.4375 1.9375q0 1.109375 0.4375 1.921875q0.453125 0.8125 1.171875 1.25q0.71875 0.4375 1.546875 0.4375zm10.912537 1.4375q-1.4375 0 -2.546875 -0.671875q-1.09375 -0.671875 -1.71875 -1.8125q-0.625 -1.15625 -0.625 -2.5625q0 -1.421875 0.625 -2.5625q0.625 -1.15625 1.71875 -1.828125q1.109375 -0.671875 2.546875 -0.671875q1.4375 0 2.53125 0.6875q1.09375 0.671875 1.71875 1.828125q0.625 1.140625 0.625 2.546875q0 1.40625 -0.625 2.5625q-0.625 1.140625 -1.71875 1.8125q-1.09375 0.671875 -2.53125 0.671875zm0 -1.4375q0.859375 0 1.609375 -0.421875q0.75 -0.4375 1.21875 -1.25q0.46875 -0.8125 0.46875 -1.9375q0 -1.140625 -0.46875 -1.953125q-0.46875 -0.8125 -1.21875 -1.234375q-0.75 -0.4375 -1.609375 -0.4375q-0.859375 0 -1.625 0.4375q-0.765625 0.421875 -1.234375 1.234375q-0.46875 0.8125 -0.46875 1.953125q0 1.125 0.46875 1.9375q0.46875 0.8125 1.234375 1.25q0.765625 0.421875 1.625 0.421875zm6.691162 1.140625l0 -9.515625l1.515625 0l0 1.40625l0.078125 0q0.359375 -0.703125 1.203125 -1.203125q0.859375 -0.5 1.875 -0.5q1.75 0 2.625 1.015625q0.890625 1.015625 0.890625 2.703125l0 6.09375l-1.578125 0l0 -5.859375q0 -1.375 -0.671875 -1.9375q-0.65625 -0.578125 -1.703125 -0.578125q-0.78125 0 -1.375 0.4375q-0.59375 0.4375 -0.9375 1.125q-0.328125 0.6875 -0.328125 1.453125l0 5.359375l-1.59375 0zm13.756958 0.296875q-1.0625 0 -1.875 -0.34375q-0.8125 -0.34375 -1.34375 -0.921875q-0.53125 -0.59375 -0.796875 -1.28125l1.421875 -0.640625q0.359375 0.859375 1.0625 1.328125q0.71875 0.46875 1.640625 0.46875q0.875 0 1.453125 -0.359375q0.59375 -0.359375 0.59375 -1.046875q0 -0.421875 -0.25 -0.703125q-0.234375 -0.296875 -0.703125 -0.5q-0.46875 -0.21875 -1.140625 -0.375l-1.15625 -0.3125q-0.671875 -0.1875 -1.265625 -0.515625q-0.59375 -0.34375 -0.96875 -0.875q-0.359375 -0.53125 -0.359375 -1.296875q0 -0.84375 0.5 -1.453125q0.515625 -0.625 1.328125 -0.953125q0.828125 -0.328125 1.765625 -0.328125q0.8125 0 1.53125 0.234375q0.71875 0.234375 1.25 0.6875q0.546875 0.453125 0.828125 1.125l-1.375 0.640625q-0.359375 -0.703125 -0.953125 -0.984375q-0.59375 -0.28125 -1.328125 -0.28125q-0.78125 0 -1.359375 0.34375q-0.578125 0.34375 -0.578125 0.9375q0 0.59375 0.46875 0.90625q0.484375 0.296875 1.171875 0.46875l1.375 0.359375q1.40625 0.359375 2.109375 1.0625q0.71875 0.6875 0.71875 1.703125q0 0.890625 -0.515625 1.546875q-0.5 0.65625 -1.359375 1.015625q-0.859375 0.34375 -1.890625 0.34375zm9.693359 0q-1.375 0 -2.453125 -0.640625q-1.078125 -0.65625 -1.6875 -1.796875q-0.59375 -1.140625 -0.59375 -2.59375q0 -1.359375 0.5625 -2.515625q0.578125 -1.15625 1.609375 -1.859375q1.03125 -0.703125 2.4375 -0.703125q1.40625 0 2.421875 0.625q1.03125 0.625 1.578125 1.734375q0.546875 1.09375 0.546875 2.515625q0 0.125 -0.015625 0.265625q0 0.125 -0.015625 0.21875l-8.203125 0l0 -1.3125l6.5625 0q-0.03125 -0.390625 -0.1875 -0.84375q-0.15625 -0.46875 -0.5 -0.859375q-0.34375 -0.40625 -0.875 -0.65625q-0.53125 -0.25 -1.3125 -0.25q-0.9375 0 -1.625 0.484375q-0.671875 0.46875 -1.046875 1.296875q-0.359375 0.8125 -0.359375 1.859375q0 1.203125 0.46875 2.015625q0.46875 0.796875 1.203125 1.1875q0.734375 0.390625 1.546875 0.390625q1.046875 0 1.71875 -0.484375q0.6875 -0.5 1.09375 -1.234375l1.34375 0.65625q-0.5625 1.078125 -1.609375 1.796875q-1.046875 0.703125 -2.609375 0.703125z" fill-rule="nonzero"/><path fill="#010000" fill-opacity="0.0" d="m569.39465 61.58205l4.402832 0l0 23.357632l-4.402832 0l0 -23.357632z" fill-rule="nonzero"/><path fill="#000000" d="m571.5978 72.36961q-0.5 0 -0.859375 -0.34375q-0.34375 -0.34375 -0.34375 -0.859375q0 -0.5 0.34375 -0.84375q0.359375 -0.34375 0.859375 -0.34375q0.5 0 0.84375 0.34375q0.34375 0.34375 0.34375 0.84375q0 0.515625 -0.34375 0.859375q-0.34375 0.34375 -0.84375 0.34375zm0 7.34375q-0.5 0 -0.859375 -0.34375q-0.34375 -0.34375 -0.34375 -0.84375q0 -0.484375 0.34375 -0.828125q0.359375 -0.34375 0.859375 -0.34375q0.5 0 0.84375 0.34375q0.34375 0.34375 0.34375 0.828125q0 0.5 -0.34375 0.84375q-0.34375 0.34375 -0.84375 0.34375z" fill-rule="nonzero"/><path fill="#010000" fill-opacity="0.0" d="m573.7975 61.58205l0 0l0 23.357632l0 0l0 -23.357632z" fill-rule="nonzero"/><path fill="#ffffff" d="m456.1886 84.08399l148.57819 0l0 22.399994l-148.57819 0l0 -22.399994z" fill-rule="nonzero"/><path fill="#000000" fill-opacity="0.0" d="m456.1886 83.98205l55.87549 0l0 23.357628l-55.87549 0l0 -23.357628z" fill-rule="nonzero"/><path fill="#45818e" d="m457.70422 102.00399l0 -13.359375l4.859375 0q1.34375 0 2.34375 0.546875q1.0 0.53125 1.5625 1.484375q0.5625 0.953125 0.5625 2.1875q0 0.90625 -0.390625 1.671875q-0.375 0.75 -1.046875 1.3125q-0.65625 0.546875 -1.546875 0.84375q-0.875 0.296875 -1.890625 0.296875l-3.0625 0l0 -2.3125l3.453125 0q0.578125 0 1.0 -0.234375q0.4375 -0.25 0.6875 -0.671875q0.25 -0.421875 0.25 -0.9375q0 -0.484375 -0.21875 -0.90625q-0.203125 -0.421875 -0.640625 -0.6875q-0.421875 -0.265625 -1.03125 -0.265625l-2.375 0l0 11.03125l-2.515625 0zm2.9375 -6.0625l2.953125 0l4.140625 5.90625l0 0.15625l-2.890625 0l-4.203125 -6.0625zm13.108856 6.359375q-1.4375 0 -2.578125 -0.640625q-1.125 -0.65625 -1.765625 -1.796875q-0.640625 -1.140625 -0.640625 -2.59375q0 -1.359375 0.625 -2.515625q0.640625 -1.15625 1.734375 -1.859375q1.109375 -0.703125 2.53125 -0.703125q1.53125 0 2.5625 0.65625q1.046875 0.65625 1.59375 1.75q0.546875 1.078125 0.546875 2.40625q0 0.296875 -0.03125 0.515625q-0.015625 0.21875 -0.03125 0.3125l-8.171875 0l0 -1.734375l5.875 0q-0.015625 -0.328125 -0.1875 -0.65625q-0.171875 -0.34375 -0.46875 -0.625q-0.296875 -0.28125 -0.71875 -0.453125q-0.421875 -0.171875 -0.953125 -0.171875q-0.71875 0 -1.3125 0.375q-0.578125 0.359375 -0.921875 1.03125q-0.328125 0.65625 -0.328125 1.578125q0 0.953125 0.359375 1.609375q0.359375 0.65625 0.953125 1.015625q0.609375 0.34375 1.359375 0.34375q0.875 0 1.46875 -0.375q0.609375 -0.390625 0.9375 -0.96875l1.984375 0.96875q-0.671875 1.171875 -1.765625 1.859375q-1.078125 0.671875 -2.65625 0.671875zm10.051483 0q-1.234375 0 -2.109375 -0.34375q-0.859375 -0.359375 -1.40625 -0.9375q-0.53125 -0.578125 -0.796875 -1.265625l2.1875 -0.953125q0.3125 0.671875 0.84375 1.015625q0.546875 0.34375 1.28125 0.34375q0.59375 0 1.078125 -0.1875q0.484375 -0.203125 0.484375 -0.734375q0 -0.375 -0.25 -0.578125q-0.25 -0.21875 -0.625 -0.34375q-0.375 -0.125 -0.765625 -0.1875l-1.125 -0.25q-0.6875 -0.140625 -1.3125 -0.515625q-0.609375 -0.390625 -0.984375 -0.984375q-0.375 -0.59375 -0.375 -1.359375q0 -0.84375 0.484375 -1.484375q0.5 -0.640625 1.34375 -0.984375q0.84375 -0.359375 1.875 -0.359375q0.953125 0 1.71875 0.234375q0.765625 0.21875 1.328125 0.671875q0.5625 0.453125 0.890625 1.15625l-2.09375 0.921875q-0.296875 -0.5625 -0.78125 -0.78125q-0.46875 -0.21875 -1.0 -0.21875q-0.640625 0 -1.015625 0.25q-0.375 0.234375 -0.375 0.5625q0 0.359375 0.375 0.625q0.375 0.25 0.90625 0.390625l1.390625 0.328125q1.421875 0.34375 2.140625 1.09375q0.71875 0.734375 0.71875 1.78125q0 0.9375 -0.546875 1.640625q-0.53125 0.6875 -1.453125 1.078125q-0.921875 0.375 -2.03125 0.375zm9.196594 0q-1.75 0 -2.640625 -1.078125q-0.875 -1.078125 -0.875 -2.953125l0 -5.78125l2.453125 0l0 5.484375q0 0.96875 0.46875 1.53125q0.484375 0.546875 1.234375 0.546875q0.71875 0 1.21875 -0.359375q0.515625 -0.375 0.78125 -0.984375q0.265625 -0.625 0.265625 -1.375l0 -4.84375l2.453125 0l0 9.515625l-2.296875 0l0 -1.1875l-0.15625 0q-0.28125 0.4375 -0.734375 0.78125q-0.4375 0.328125 -0.984375 0.515625q-0.546875 0.1875 -1.1875 0.1875zm7.700287 -0.296875l0 -13.359375l2.453125 0l0 13.359375l-2.453125 0zm4.0915527 -7.421875l0 -2.09375l1.75 0l0 2.09375l-1.75 0zm4.8125 7.578125q-1.46875 0 -2.3125 -0.84375q-0.84375 -0.859375 -0.84375 -2.359375l0 -9.15625l2.453125 0l0 8.71875q0 0.6875 0.265625 1.015625q0.28125 0.328125 0.921875 0.328125q0.296875 0 0.546875 -0.078125q0.265625 -0.09375 0.671875 -0.34375l0 2.390625q-0.421875 0.15625 -0.84375 0.234375q-0.40625 0.09375 -0.859375 0.09375zm-0.796875 -7.578125l0 -2.09375l2.421875 0l0 2.09375l-2.421875 0z" fill-rule="nonzero"/><path fill="#010000" fill-opacity="0.0" d="m512.0641 83.98205l29.943298 0l0 23.357628l-29.943298 0l0 -23.357628z" fill-rule="nonzero"/><path fill="#000000" d="m520.22034 100.957115l-7.15625 -3.4375l0 -1.15625l7.15625 -3.421875l0 1.453125l-5.484375 2.515625l0 0.078125l5.484375 2.515625l0 1.453125zm5.5629883 3.578125q-0.5625 -0.640625 -1.15625 -1.546875q-0.578125 -0.890625 -1.078125 -1.984375q-0.484375 -1.09375 -0.796875 -2.34375q-0.296875 -1.265625 -0.296875 -2.65625q0 -1.40625 0.296875 -2.65625q0.3125 -1.265625 0.796875 -2.359375q0.5 -1.09375 1.078125 -1.984375q0.59375 -0.90625 1.15625 -1.546875l1.15625 0.8125q-0.796875 0.9375 -1.453125 2.171875q-0.65625 1.234375 -1.0625 2.65625q-0.40625 1.40625 -0.40625 2.90625q0 1.484375 0.40625 2.90625q0.40625 1.421875 1.0625 2.65625q0.65625 1.21875 1.453125 2.15625l-1.15625 0.8125zm3.0198975 0l-1.15625 -0.8125q0.78125 -0.9375 1.4375 -2.15625q0.671875 -1.234375 1.0625 -2.65625q0.40625 -1.421875 0.40625 -2.90625q0 -1.5 -0.40625 -2.90625q-0.390625 -1.421875 -1.0625 -2.65625q-0.65625 -1.234375 -1.4375 -2.171875l1.15625 -0.8125q0.734375 0.859375 1.5 2.15625q0.765625 1.296875 1.28125 2.90625q0.53125 1.609375 0.53125 3.484375q0 1.390625 -0.3125 2.65625q-0.296875 1.25 -0.78125 2.34375q-0.484375 1.09375 -1.078125 1.984375q-0.578125 0.90625 -1.140625 1.546875zm6.1761475 -0.484375l-0.765625 -0.5l1.0 -1.546875q-0.296875 -0.0625 -0.59375 -0.328125q-0.28125 -0.28125 -0.28125 -0.75q0 -0.484375 0.34375 -0.828125q0.34375 -0.34375 0.84375 -0.34375q0.265625 0 0.484375 0.09375q0.21875 0.078125 0.375 0.25q0.15625 0.15625 0.25 0.375q0.09375 0.203125 0.09375 0.453125q0 0.21875 -0.078125 0.4375q-0.078125 0.21875 -0.1875 0.421875q-0.109375 0.203125 -0.265625 0.40625l-1.21875 1.859375z" fill-rule="nonzero"/><path fill="#000000" fill-opacity="0.0" d="m542.0074 83.98205l53.524536 0l0 23.357628l-53.524536 0l0 -23.357628z" fill-rule="nonzero"/><path fill="#45818e" d="m547.55426 102.300865q-1.140625 0 -2.140625 -0.421875q-1.0 -0.4375 -1.734375 -1.28125q-0.734375 -0.84375 -1.109375 -2.078125l2.359375 -0.9375q0.265625 0.984375 0.921875 1.65625q0.65625 0.671875 1.71875 0.671875q0.515625 0 0.984375 -0.171875q0.46875 -0.171875 0.75 -0.53125q0.296875 -0.359375 0.296875 -0.875q0 -0.5 -0.25 -0.859375q-0.234375 -0.375 -0.8125 -0.703125q-0.5625 -0.328125 -1.53125 -0.671875l-0.828125 -0.3125q-0.53125 -0.203125 -1.09375 -0.5q-0.546875 -0.3125 -1.0 -0.765625q-0.453125 -0.46875 -0.734375 -1.0625q-0.28125 -0.59375 -0.28125 -1.359375q0 -1.046875 0.53125 -1.890625q0.546875 -0.859375 1.515625 -1.359375q0.96875 -0.5 2.265625 -0.5q1.34375 0 2.21875 0.453125q0.875 0.453125 1.359375 1.109375q0.5 0.65625 0.703125 1.265625l-2.21875 0.9375q-0.109375 -0.375 -0.375 -0.703125q-0.25 -0.34375 -0.671875 -0.546875q-0.40625 -0.203125 -0.984375 -0.203125q-0.53125 0 -0.96875 0.1875q-0.421875 0.171875 -0.671875 0.484375q-0.234375 0.296875 -0.234375 0.703125q0 0.609375 0.5 1.046875q0.515625 0.421875 1.65625 0.78125l0.84375 0.28125q0.703125 0.25 1.34375 0.578125q0.65625 0.328125 1.15625 0.8125q0.5 0.484375 0.78125 1.15625q0.296875 0.671875 0.296875 1.59375q0 1.03125 -0.40625 1.796875q-0.40625 0.765625 -1.078125 1.25q-0.671875 0.484375 -1.484375 0.71875q-0.8125 0.25 -1.59375 0.25zm5.3131714 -7.71875l0 -2.09375l1.75 0l0 2.09375l-1.75 0zm4.8125 7.578125q-1.46875 0 -2.3125 -0.84375q-0.84375 -0.859375 -0.84375 -2.359375l0 -9.15625l2.453125 0l0 8.71875q0 0.6875 0.265625 1.015625q0.28125 0.328125 0.921875 0.328125q0.296875 0 0.546875 -0.078125q0.265625 -0.09375 0.671875 -0.34375l0 2.390625q-0.421875 0.15625 -0.84375 0.234375q-0.40625 0.09375 -0.859375 0.09375zm-0.796875 -7.578125l0 -2.09375l2.421875 0l0 2.09375l-2.421875 0zm4.4298096 7.421875l0 -9.515625l2.296875 0l0 1.265625l0.15625 0q0.234375 -0.4375 0.640625 -0.78125q0.40625 -0.359375 0.9375 -0.5625q0.546875 -0.203125 1.15625 -0.203125q0.375 0 0.671875 0.0625q0.296875 0.046875 0.53125 0.140625l0 2.453125q-0.40625 -0.15625 -0.78125 -0.25q-0.375 -0.109375 -0.8125 -0.109375q-0.71875 0 -1.265625 0.375q-0.53125 0.359375 -0.8125 0.984375q-0.265625 0.625 -0.265625 1.40625l0 4.734375l-2.453125 0zm7.854309 0l0 -9.515625l2.453125 0l0 9.515625l-2.453125 0zm1.234375 -10.5625q-0.65625 0 -1.125 -0.46875q-0.453125 -0.46875 -0.453125 -1.109375q0 -0.65625 0.453125 -1.109375q0.46875 -0.46875 1.125 -0.46875q0.65625 0 1.109375 0.46875q0.453125 0.453125 0.453125 1.109375q0 0.640625 -0.453125 1.109375q-0.453125 0.46875 -1.109375 0.46875zm3.5602417 10.5625l0 -9.515625l2.296875 0l0 1.1875l0.15625 0q0.421875 -0.6875 1.203125 -1.078125q0.78125 -0.40625 1.703125 -0.40625q1.75 0 2.625 1.0625q0.875 1.0625 0.875 2.84375l0 5.90625l-2.4375 0l0 -5.609375q0 -0.9375 -0.484375 -1.421875q-0.46875 -0.5 -1.28125 -0.5q-0.671875 0 -1.171875 0.359375q-0.5 0.359375 -0.765625 0.96875q-0.265625 0.609375 -0.265625 1.359375l0 4.84375l-2.453125 0zm15.528442 4.328125q-1.296875 0 -2.234375 -0.40625q-0.9375 -0.390625 -1.546875 -1.03125q-0.59375 -0.640625 -0.828125 -1.328125l2.296875 -0.921875q0.296875 0.6875 0.890625 1.109375q0.609375 0.421875 1.421875 0.421875q1.140625 0 1.828125 -0.703125q0.6875 -0.703125 0.6875 -2.03125l0 -0.75l-0.15625 0q-0.4375 0.640625 -1.171875 0.984375q-0.71875 0.328125 -1.65625 0.328125q-1.15625 0 -2.171875 -0.59375q-1.015625 -0.59375 -1.640625 -1.6875q-0.625 -1.109375 -0.625 -2.625q0 -1.53125 0.625 -2.625q0.625 -1.09375 1.640625 -1.6875q1.015625 -0.59375 2.171875 -0.59375q0.9375 0 1.65625 0.328125q0.734375 0.328125 1.171875 0.984375l0.15625 0l0 -1.015625l2.34375 0l0 8.859375q0 1.53125 -0.59375 2.640625q-0.59375 1.125 -1.6875 1.734375q-1.09375 0.609375 -2.578125 0.609375zm0.03125 -6.546875q0.65625 0 1.21875 -0.296875q0.578125 -0.3125 0.921875 -0.921875q0.34375 -0.609375 0.34375 -1.46875q0 -0.890625 -0.34375 -1.484375q-0.34375 -0.609375 -0.921875 -0.90625q-0.5625 -0.296875 -1.21875 -0.296875q-0.65625 0 -1.234375 0.296875q-0.578125 0.296875 -0.921875 0.90625q-0.34375 0.59375 -0.34375 1.484375q0 0.875 0.34375 1.484375q0.34375 0.609375 0.921875 0.90625q0.578125 0.296875 1.234375 0.296875z" fill-rule="nonzero"/><path fill="#010000" fill-opacity="0.0" d="m595.5319 83.98205l9.234863 0l0 23.357628l-9.234863 0l0 -23.357628z" fill-rule="nonzero"/><path fill="#000000" d="m596.61005 100.957115l0 -1.453125l5.46875 -2.515625l0 -0.078125l-5.46875 -2.515625l0 -1.453125l7.15625 3.421875l0 1.15625l-7.15625 3.4375z" fill-rule="nonzero"/><path fill="#000000" fill-opacity="0.0" d="m604.7668 83.98205l0 0l0 23.357628l0 0l0 -23.357628z" fill-rule="nonzero"/><path fill="#000000" fill-opacity="0.0" d="m619.97375 124.34121l-189.03937 0" fill-rule="evenodd"/><path stroke="#000000" stroke-width="3.0" stroke-linejoin="round" stroke-linecap="butt" d="m601.97375 124.34121l-171.03937 0" fill-rule="evenodd"/><path fill="#000000" stroke="#000000" stroke-width="3.0" stroke-linecap="butt" d="m601.97375 129.2964l13.614319 -4.9551926l-13.614319 -4.9552z" fill-rule="evenodd"/></g></svg>